<?xml version="1.0" encoding="UTF-8" standalone="no"?>
<svg
   width="975pt"
   viewBox="0 0 975 557"
   height="557pt"
   version="1.1"
   id="svg407"
   sodipodi:docname="TGA_prova.svg"
   xmlns:inkscape="http://www.inkscape.org/namespaces/inkscape"
   xmlns:sodipodi="http://sodipodi.sourceforge.net/DTD/sodipodi-0.dtd"
   xmlns="http://www.w3.org/2000/svg"
   xmlns:svg="http://www.w3.org/2000/svg">
  <g
     id="g1853"
     clip-path="url(#clipPath1890)">
    <polygon
       points="975,557 975,0 0,0 0,557 "
       id="polygon236" />
  </g>
  <sodipodi:namedview
     id="namedview409"
     pagecolor="#505050"
     bordercolor="#eeeeee"
     borderopacity="1"
     inkscape:showpageshadow="0"
     inkscape:pageopacity="0"
     inkscape:pagecheckerboard="0"
     inkscape:deskcolor="#505050"
     inkscape:document-units="pt"
     showgrid="false" />
  <title
     id="title226">Figure 1</title>
  <desc
     id="desc228">
Creator: GL2PS 1.4.2, (C) 1999-2020 C. Geuzaine
For: Octave
CreationDate: Thu Aug 18 00:40:20 2022
</desc>
  <defs
     id="defs230">
    <clipPath
       id="clipPath379">
      <polygon
         points="0,557 975,557 975,0 0,0"
         id="polygon377" />
    </clipPath>
    <clipPath
       clipPathUnits="userSpaceOnUse"
       id="clipPath832">
      <g
         id="g836">
        <polygon
           points="0,0 0,557 975,557 975,0 "
           id="polygon834" />
      </g>
    </clipPath>
    <clipPath
       clipPathUnits="userSpaceOnUse"
       id="clipPath838">
      <g
         id="g842">
        <polygon
           points="0,0 0,557 975,557 975,0 "
           id="polygon840" />
      </g>
    </clipPath>
    <clipPath
       clipPathUnits="userSpaceOnUse"
       id="clipPath844">
      <g
         id="g848">
        <polygon
           points="0,0 0,557 975,557 975,0 "
           id="polygon846" />
      </g>
    </clipPath>
    <clipPath
       clipPathUnits="userSpaceOnUse"
       id="clipPath850">
      <g
         id="g854">
        <polygon
           points="0,0 0,557 975,557 975,0 "
           id="polygon852" />
      </g>
    </clipPath>
    <clipPath
       clipPathUnits="userSpaceOnUse"
       id="clipPath856">
      <g
         id="g860">
        <polygon
           points="0,0 0,557 975,557 975,0 "
           id="polygon858" />
      </g>
    </clipPath>
    <clipPath
       clipPathUnits="userSpaceOnUse"
       id="clipPath862">
      <g
         id="g866">
        <polygon
           points="0,0 0,557 975,557 975,0 "
           id="polygon864" />
      </g>
    </clipPath>
    <clipPath
       clipPathUnits="userSpaceOnUse"
       id="clipPath868">
      <g
         id="g872">
        <polygon
           points="0,0 0,557 975,557 975,0 "
           id="polygon870" />
      </g>
    </clipPath>
    <clipPath
       clipPathUnits="userSpaceOnUse"
       id="clipPath874">
      <g
         id="g878">
        <polygon
           points="0,0 0,557 975,557 975,0 "
           id="polygon876" />
      </g>
    </clipPath>
    <clipPath
       clipPathUnits="userSpaceOnUse"
       id="clipPath880">
      <g
         id="g884">
        <polygon
           points="0,0 0,557 975,557 975,0 "
           id="polygon882" />
      </g>
    </clipPath>
    <clipPath
       clipPathUnits="userSpaceOnUse"
       id="clipPath886">
      <g
         id="g890">
        <polygon
           points="0,0 0,557 975,557 975,0 "
           id="polygon888" />
      </g>
    </clipPath>
    <clipPath
       clipPathUnits="userSpaceOnUse"
       id="clipPath892">
      <g
         id="g896">
        <polygon
           points="0,0 0,557 975,557 975,0 "
           id="polygon894" />
      </g>
    </clipPath>
    <clipPath
       clipPathUnits="userSpaceOnUse"
       id="clipPath898">
      <g
         id="g902">
        <polygon
           points="0,0 0,557 975,557 975,0 "
           id="polygon900" />
      </g>
    </clipPath>
    <clipPath
       clipPathUnits="userSpaceOnUse"
       id="clipPath904">
      <g
         id="g908">
        <polygon
           points="0,0 0,557 975,557 975,0 "
           id="polygon906" />
      </g>
    </clipPath>
    <clipPath
       clipPathUnits="userSpaceOnUse"
       id="clipPath910">
      <g
         id="g914">
        <polygon
           points="0,0 0,557 975,557 975,0 "
           id="polygon912" />
      </g>
    </clipPath>
    <clipPath
       clipPathUnits="userSpaceOnUse"
       id="clipPath916">
      <g
         id="g920">
        <polygon
           points="0,0 0,557 975,557 975,0 "
           id="polygon918" />
      </g>
    </clipPath>
    <clipPath
       clipPathUnits="userSpaceOnUse"
       id="clipPath922">
      <g
         id="g926">
        <polygon
           points="0,0 0,557 975,557 975,0 "
           id="polygon924" />
      </g>
    </clipPath>
    <clipPath
       clipPathUnits="userSpaceOnUse"
       id="clipPath928">
      <g
         id="g932">
        <polygon
           points="0,0 0,557 975,557 975,0 "
           id="polygon930" />
      </g>
    </clipPath>
    <clipPath
       clipPathUnits="userSpaceOnUse"
       id="clipPath934">
      <g
         id="g938">
        <polygon
           points="0,0 0,557 975,557 975,0 "
           id="polygon936" />
      </g>
    </clipPath>
    <clipPath
       clipPathUnits="userSpaceOnUse"
       id="clipPath940">
      <g
         id="g944">
        <polygon
           points="0,0 0,557 975,557 975,0 "
           id="polygon942" />
      </g>
    </clipPath>
    <clipPath
       clipPathUnits="userSpaceOnUse"
       id="clipPath946">
      <g
         id="g950">
        <polygon
           points="0,0 0,557 975,557 975,0 "
           id="polygon948" />
      </g>
    </clipPath>
    <clipPath
       clipPathUnits="userSpaceOnUse"
       id="clipPath952">
      <g
         id="g956">
        <polygon
           points="0,0 0,557 975,557 975,0 "
           id="polygon954" />
      </g>
    </clipPath>
    <clipPath
       clipPathUnits="userSpaceOnUse"
       id="clipPath958">
      <g
         id="g962">
        <polygon
           points="0,0 0,557 975,557 975,0 "
           id="polygon960" />
      </g>
    </clipPath>
    <clipPath
       clipPathUnits="userSpaceOnUse"
       id="clipPath964">
      <g
         id="g968">
        <polygon
           points="0,0 0,557 975,557 975,0 "
           id="polygon966" />
      </g>
    </clipPath>
    <clipPath
       clipPathUnits="userSpaceOnUse"
       id="clipPath970">
      <g
         id="g974">
        <polygon
           points="0,0 0,557 975,557 975,0 "
           id="polygon972" />
      </g>
    </clipPath>
    <clipPath
       clipPathUnits="userSpaceOnUse"
       id="clipPath976">
      <g
         id="g980">
        <polygon
           points="0,0 0,557 975,557 975,0 "
           id="polygon978" />
      </g>
    </clipPath>
    <clipPath
       clipPathUnits="userSpaceOnUse"
       id="clipPath982">
      <g
         id="g986">
        <polygon
           points="0,0 0,557 975,557 975,0 "
           id="polygon984" />
      </g>
    </clipPath>
    <clipPath
       clipPathUnits="userSpaceOnUse"
       id="clipPath988">
      <g
         id="g992">
        <polygon
           points="0,0 0,557 975,557 975,0 "
           id="polygon990" />
      </g>
    </clipPath>
    <clipPath
       clipPathUnits="userSpaceOnUse"
       id="clipPath994">
      <g
         id="g998">
        <polygon
           points="0,0 0,557 975,557 975,0 "
           id="polygon996" />
      </g>
    </clipPath>
    <clipPath
       clipPathUnits="userSpaceOnUse"
       id="clipPath1000">
      <g
         id="g1004">
        <polygon
           points="0,0 0,557 975,557 975,0 "
           id="polygon1002" />
      </g>
    </clipPath>
    <clipPath
       clipPathUnits="userSpaceOnUse"
       id="clipPath1006">
      <g
         id="g1010">
        <polygon
           points="0,0 0,557 975,557 975,0 "
           id="polygon1008" />
      </g>
    </clipPath>
    <clipPath
       clipPathUnits="userSpaceOnUse"
       id="clipPath1012">
      <g
         id="g1016">
        <polygon
           points="0,0 0,557 975,557 975,0 "
           id="polygon1014" />
      </g>
    </clipPath>
    <clipPath
       clipPathUnits="userSpaceOnUse"
       id="clipPath1018">
      <g
         id="g1022">
        <polygon
           points="0,0 0,557 975,557 975,0 "
           id="polygon1020" />
      </g>
    </clipPath>
    <clipPath
       clipPathUnits="userSpaceOnUse"
       id="clipPath1024">
      <g
         id="g1028">
        <polygon
           points="0,0 0,557 975,557 975,0 "
           id="polygon1026" />
      </g>
    </clipPath>
    <clipPath
       clipPathUnits="userSpaceOnUse"
       id="clipPath1030">
      <g
         id="g1034">
        <polygon
           points="0,0 0,557 975,557 975,0 "
           id="polygon1032" />
      </g>
    </clipPath>
    <clipPath
       clipPathUnits="userSpaceOnUse"
       id="clipPath1036">
      <g
         id="g1040">
        <polygon
           points="0,0 0,557 975,557 975,0 "
           id="polygon1038" />
      </g>
    </clipPath>
    <clipPath
       clipPathUnits="userSpaceOnUse"
       id="clipPath1042">
      <g
         id="g1046">
        <polygon
           points="0,0 0,557 975,557 975,0 "
           id="polygon1044" />
      </g>
    </clipPath>
    <clipPath
       clipPathUnits="userSpaceOnUse"
       id="clipPath1048">
      <g
         id="g1052">
        <polygon
           points="0,0 0,557 975,557 975,0 "
           id="polygon1050" />
      </g>
    </clipPath>
    <clipPath
       clipPathUnits="userSpaceOnUse"
       id="clipPath1054">
      <g
         id="g1058">
        <polygon
           points="0,0 0,557 975,557 975,0 "
           id="polygon1056" />
      </g>
    </clipPath>
    <clipPath
       clipPathUnits="userSpaceOnUse"
       id="clipPath1060">
      <g
         id="g1064">
        <polygon
           points="0,0 0,557 975,557 975,0 "
           id="polygon1062" />
      </g>
    </clipPath>
    <clipPath
       clipPathUnits="userSpaceOnUse"
       id="clipPath1066">
      <g
         id="g1070">
        <polygon
           points="0,0 0,557 975,557 975,0 "
           id="polygon1068" />
      </g>
    </clipPath>
    <clipPath
       clipPathUnits="userSpaceOnUse"
       id="clipPath1866">
      <polyline
         fill="none"
         stroke-width="0.5"
         stroke-linejoin="round"
         stroke="#d85218"
         points="781.297,79.8291 807.86,79.8291"
         stroke-linecap="butt"
         id="polyline1868" />
    </clipPath>
    <clipPath
       clipPathUnits="userSpaceOnUse"
       id="clipPath1870">
      <polyline
         fill="none"
         stroke-width="0.5"
         stroke-linejoin="round"
         stroke="#d85218"
         points="781.297,79.8291 807.86,79.8291"
         stroke-linecap="butt"
         id="polyline1872" />
    </clipPath>
    <clipPath
       clipPathUnits="userSpaceOnUse"
       id="clipPath1874">
      <polyline
         fill="none"
         stroke-width="0.5"
         stroke-linejoin="round"
         stroke="#d85218"
         points="781.297,79.8291 807.86,79.8291"
         stroke-linecap="butt"
         id="polyline1876" />
    </clipPath>
    <clipPath
       clipPathUnits="userSpaceOnUse"
       id="clipPath1878">
      <polyline
         fill="none"
         stroke-width="0.5"
         stroke-linejoin="round"
         stroke="#d85218"
         points="781.297,79.8291 807.86,79.8291"
         stroke-linecap="butt"
         id="polyline1880" />
    </clipPath>
    <clipPath
       clipPathUnits="userSpaceOnUse"
       id="clipPath1882">
      <polyline
         fill="none"
         stroke-width="0.5"
         stroke-linejoin="round"
         stroke="#d85218"
         points="781.297,79.8291 807.86,79.8291"
         stroke-linecap="butt"
         id="polyline1884" />
    </clipPath>
    <clipPath
       clipPathUnits="userSpaceOnUse"
       id="clipPath1886">
      <polyline
         fill="none"
         stroke-width="0.5"
         stroke-linejoin="round"
         stroke="#d85218"
         points="781.297,79.8291 807.86,79.8291"
         stroke-linecap="butt"
         id="polyline1888" />
    </clipPath>
    <clipPath
       clipPathUnits="userSpaceOnUse"
       id="clipPath1890">
      <polyline
         fill="none"
         stroke-width="0.5"
         stroke-linejoin="round"
         stroke="#d85218"
         points="781.297,79.8291 807.86,79.8291"
         stroke-linecap="butt"
         id="polyline1892" />
    </clipPath>
  </defs>
  <polygon
     fill="#ffffff"
     points="0,0 975,0 975,557 0,557"
     id="polygon232" />
  <polygon
     fill="#ffffff"
     shape-rendering="crispEdges"
     points="975,0 0,0 0,557 975,557 "
     id="polygon234" />
  <polygon
     fill="#ffffff"
     shape-rendering="crispEdges"
     points="126.856,41.8447 126.856,496.557 883.11,496.557 883.11,41.8447 "
     id="polygon239"
     clip-path="url(#clipPath1066)" />
  <polyline
     fill="none"
     stroke-width="0.5"
     stroke-linejoin="miter"
     stroke-dasharray="16, 0"
     stroke="#262626"
     points="126.856,496.557 126.856,41.8447"
     stroke-linecap="butt"
     stroke-opacity="0.15"
     id="polyline241"
     clip-path="url(#clipPath1060)" />
  <polyline
     fill="none"
     stroke-width="0.5"
     stroke-linejoin="miter"
     stroke-dasharray="16, 0"
     stroke="#262626"
     points="294.912,496.557 294.912,41.8447"
     stroke-linecap="butt"
     stroke-opacity="0.15"
     id="polyline243"
     clip-path="url(#clipPath1054)" />
  <polyline
     fill="none"
     stroke-width="0.5"
     stroke-linejoin="miter"
     stroke-dasharray="16, 0"
     stroke="#262626"
     points="462.968,496.557 462.968,41.8447"
     stroke-linecap="butt"
     stroke-opacity="0.15"
     id="polyline245"
     clip-path="url(#clipPath1048)" />
  <polyline
     fill="none"
     stroke-width="0.5"
     stroke-linejoin="miter"
     stroke-dasharray="16, 0"
     stroke="#262626"
     points="631.025,496.557 631.025,41.8447"
     stroke-linecap="butt"
     stroke-opacity="0.15"
     id="polyline247"
     clip-path="url(#clipPath1042)" />
  <polyline
     fill="none"
     stroke-width="0.5"
     stroke-linejoin="miter"
     stroke-dasharray="16, 0"
     stroke="#262626"
     points="799.081,496.557 799.081,41.8447"
     stroke-linecap="butt"
     stroke-opacity="0.15"
     id="polyline249"
     clip-path="url(#clipPath1036)" />
  <polyline
     fill="none"
     stroke-width="0.5"
     stroke-linejoin="miter"
     stroke="#262626"
     points="126.856,496.557 126.856,488.999"
     stroke-linecap="butt"
     id="polyline251"
     clip-path="url(#clipPath1030)" />
  <polyline
     fill="none"
     stroke-width="0.5"
     stroke-linejoin="miter"
     stroke="#262626"
     points="126.856,41.8447 126.856,49.4024"
     stroke-linecap="butt"
     id="polyline253"
     clip-path="url(#clipPath1024)" />
  <polyline
     fill="none"
     stroke-width="0.5"
     stroke-linejoin="miter"
     stroke="#262626"
     points="294.912,496.557 294.912,488.999"
     stroke-linecap="butt"
     id="polyline255"
     clip-path="url(#clipPath1018)" />
  <polyline
     fill="none"
     stroke-width="0.5"
     stroke-linejoin="miter"
     stroke="#262626"
     points="294.912,41.8447 294.912,49.4024"
     stroke-linecap="butt"
     id="polyline257"
     clip-path="url(#clipPath1012)" />
  <polyline
     fill="none"
     stroke-width="0.5"
     stroke-linejoin="miter"
     stroke="#262626"
     points="462.968,496.557 462.968,488.999"
     stroke-linecap="butt"
     id="polyline259"
     clip-path="url(#clipPath1006)" />
  <polyline
     fill="none"
     stroke-width="0.5"
     stroke-linejoin="miter"
     stroke="#262626"
     points="462.968,41.8447 462.968,49.4024"
     stroke-linecap="butt"
     id="polyline261"
     clip-path="url(#clipPath1000)" />
  <polyline
     fill="none"
     stroke-width="0.5"
     stroke-linejoin="miter"
     stroke="#262626"
     points="631.025,496.557 631.025,488.999"
     stroke-linecap="butt"
     id="polyline263"
     clip-path="url(#clipPath994)" />
  <polyline
     fill="none"
     stroke-width="0.5"
     stroke-linejoin="miter"
     stroke="#262626"
     points="631.025,41.8447 631.025,49.4024"
     stroke-linecap="butt"
     id="polyline265"
     clip-path="url(#clipPath988)" />
  <polyline
     fill="none"
     stroke-width="0.5"
     stroke-linejoin="miter"
     stroke="#262626"
     points="799.081,496.557 799.081,488.999"
     stroke-linecap="butt"
     id="polyline267"
     clip-path="url(#clipPath982)" />
  <polyline
     fill="none"
     stroke-width="0.5"
     stroke-linejoin="miter"
     stroke="#262626"
     points="799.081,41.8447 799.081,49.4024"
     stroke-linecap="butt"
     id="polyline269"
     clip-path="url(#clipPath976)" />
  <g
     font-family="FreeSans"
     font-size="10px"
     xml:space="preserve"
     transform="translate(123.856,512.052)"
     font-weight="normal"
     font-style="normal"
     id="g273">
    <text
   fill="#262626"
   x="0"
   y="0"
   id="text271">0</text>
   </g>
  <g
     font-family="FreeSans"
     font-size="10px"
     xml:space="preserve"
     transform="translate(285.912,512.052)"
     font-weight="normal"
     font-style="normal"
     id="g277">
    <text
   fill="#262626"
   x="0 6 12"
   y="0"
   id="text275">200</text>
   </g>
  <g
     font-family="FreeSans"
     font-size="10px"
     xml:space="preserve"
     transform="translate(453.968,512.052)"
     font-weight="normal"
     font-style="normal"
     id="g281">
    <text
   fill="#262626"
   x="0 6 12"
   y="0"
   id="text279">400</text>
   </g>
  <g
     font-family="FreeSans"
     font-size="10px"
     xml:space="preserve"
     transform="translate(622.025,512.052)"
     font-weight="normal"
     font-style="normal"
     id="g285">
    <text
   fill="#262626"
   x="0 6 12"
   y="0"
   id="text283">600</text>
   </g>
  <g
     font-family="FreeSans"
     font-size="10px"
     xml:space="preserve"
     transform="translate(790.081,512.052)"
     font-weight="normal"
     font-style="normal"
     id="g289">
    <text
   fill="#262626"
   x="0 6 12"
   y="0"
   id="text287">800</text>
   </g>
  <polyline
     fill="none"
     stroke-width="0.5"
     stroke-linejoin="miter"
     stroke-dasharray="16, 0"
     stroke="#262626"
     points="126.856,496.557 883.11,496.557"
     stroke-linecap="butt"
     stroke-opacity="0.15"
     id="polyline291"
     clip-path="url(#clipPath970)" />
  <polyline
     fill="none"
     stroke-width="0.5"
     stroke-linejoin="miter"
     stroke-dasharray="16, 0"
     stroke="#262626"
     points="126.856,409.945 883.11,409.945"
     stroke-linecap="butt"
     stroke-opacity="0.15"
     id="polyline293"
     clip-path="url(#clipPath964)" />
  <polyline
     fill="none"
     stroke-width="0.5"
     stroke-linejoin="miter"
     stroke-dasharray="16, 0"
     stroke="#262626"
     points="126.856,323.333 883.11,323.333"
     stroke-linecap="butt"
     stroke-opacity="0.15"
     id="polyline295"
     clip-path="url(#clipPath958)" />
  <polyline
     fill="none"
     stroke-width="0.5"
     stroke-linejoin="miter"
     stroke-dasharray="16, 0"
     stroke="#262626"
     points="126.856,236.721 883.11,236.721"
     stroke-linecap="butt"
     stroke-opacity="0.15"
     id="polyline297"
     clip-path="url(#clipPath952)" />
  <polyline
     fill="none"
     stroke-width="0.5"
     stroke-linejoin="miter"
     stroke-dasharray="16, 0"
     stroke="#262626"
     points="126.856,150.11 883.11,150.11"
     stroke-linecap="butt"
     stroke-opacity="0.15"
     id="polyline299"
     clip-path="url(#clipPath946)" />
  <polyline
     fill="none"
     stroke-width="0.5"
     stroke-linejoin="miter"
     stroke-dasharray="16, 0"
     stroke="#262626"
     points="126.856,63.4977 883.11,63.4977"
     stroke-linecap="butt"
     stroke-opacity="0.15"
     id="polyline301"
     clip-path="url(#clipPath940)" />
  <polyline
     fill="none"
     stroke-width="0.5"
     stroke-linejoin="miter"
     stroke="#262626"
     points="126.856,496.557 134.421,496.557"
     stroke-linecap="butt"
     id="polyline303"
     clip-path="url(#clipPath934)" />
  <polyline
     fill="none"
     stroke-width="0.5"
     stroke-linejoin="miter"
     stroke="#262626"
     points="883.11,496.557 875.545,496.557"
     stroke-linecap="butt"
     id="polyline305"
     clip-path="url(#clipPath928)" />
  <polyline
     fill="none"
     stroke-width="0.5"
     stroke-linejoin="miter"
     stroke="#262626"
     points="126.856,409.945 134.421,409.945"
     stroke-linecap="butt"
     id="polyline307"
     clip-path="url(#clipPath922)" />
  <polyline
     fill="none"
     stroke-width="0.5"
     stroke-linejoin="miter"
     stroke="#262626"
     points="883.11,409.945 875.545,409.945"
     stroke-linecap="butt"
     id="polyline309"
     clip-path="url(#clipPath916)" />
  <polyline
     fill="none"
     stroke-width="0.5"
     stroke-linejoin="miter"
     stroke="#262626"
     points="126.856,323.333 134.421,323.333"
     stroke-linecap="butt"
     id="polyline311"
     clip-path="url(#clipPath910)" />
  <polyline
     fill="none"
     stroke-width="0.5"
     stroke-linejoin="miter"
     stroke="#262626"
     points="883.11,323.333 875.545,323.333"
     stroke-linecap="butt"
     id="polyline313"
     clip-path="url(#clipPath904)" />
  <polyline
     fill="none"
     stroke-width="0.5"
     stroke-linejoin="miter"
     stroke="#262626"
     points="126.856,236.721 134.421,236.721"
     stroke-linecap="butt"
     id="polyline315"
     clip-path="url(#clipPath898)" />
  <polyline
     fill="none"
     stroke-width="0.5"
     stroke-linejoin="miter"
     stroke="#262626"
     points="883.11,236.721 875.545,236.721"
     stroke-linecap="butt"
     id="polyline317"
     clip-path="url(#clipPath892)" />
  <polyline
     fill="none"
     stroke-width="0.5"
     stroke-linejoin="miter"
     stroke="#262626"
     points="126.856,150.11 134.421,150.11"
     stroke-linecap="butt"
     id="polyline319"
     clip-path="url(#clipPath886)" />
  <polyline
     fill="none"
     stroke-width="0.5"
     stroke-linejoin="miter"
     stroke="#262626"
     points="883.11,150.11 875.545,150.11"
     stroke-linecap="butt"
     id="polyline321"
     clip-path="url(#clipPath880)" />
  <polyline
     fill="none"
     stroke-width="0.5"
     stroke-linejoin="miter"
     stroke="#262626"
     points="126.856,63.4977 134.421,63.4977"
     stroke-linecap="butt"
     id="polyline323"
     clip-path="url(#clipPath874)" />
  <polyline
     fill="none"
     stroke-width="0.5"
     stroke-linejoin="miter"
     stroke="#262626"
     points="883.11,63.4977 875.545,63.4977"
     stroke-linecap="butt"
     id="polyline325"
     clip-path="url(#clipPath868)" />
  <g
     font-family="FreeSans"
     font-size="10px"
     xml:space="preserve"
     transform="translate(115.854,500.557)"
     font-weight="normal"
     font-style="normal"
     id="g329">
    <text
   fill="#262626"
   x="0"
   y="0"
   id="text327">0</text>
   </g>
  <g
     font-family="FreeSans"
     font-size="10px"
     xml:space="preserve"
     transform="translate(109.854,413.945)"
     font-weight="normal"
     font-style="normal"
     id="g333">
    <text
   fill="#262626"
   x="0 6"
   y="0"
   id="text331">20</text>
   </g>
  <g
     font-family="FreeSans"
     font-size="10px"
     xml:space="preserve"
     transform="translate(109.854,327.333)"
     font-weight="normal"
     font-style="normal"
     id="g337">
    <text
   fill="#262626"
   x="0 6"
   y="0"
   id="text335">40</text>
   </g>
  <g
     font-family="FreeSans"
     font-size="10px"
     xml:space="preserve"
     transform="translate(109.854,240.721)"
     font-weight="normal"
     font-style="normal"
     id="g341">
    <text
   fill="#262626"
   x="0 6"
   y="0"
   id="text339">60</text>
   </g>
  <g
     font-family="FreeSans"
     font-size="10px"
     xml:space="preserve"
     transform="translate(109.854,154.11)"
     font-weight="normal"
     font-style="normal"
     id="g345">
    <text
   fill="#262626"
   x="0 6"
   y="0"
   id="text343">80</text>
   </g>
  <g
     font-family="FreeSans"
     font-size="10px"
     xml:space="preserve"
     transform="translate(103.854,67.4977)"
     font-weight="normal"
     font-style="normal"
     id="g349">
    <text
   fill="#262626"
   x="0 6 12"
   y="0"
   id="text347">100</text>
   </g>
  <polyline
     fill="none"
     stroke-width="0.5"
     stroke-linejoin="miter"
     stroke-dasharray="16, 0"
     stroke="#262626"
     points="126.856,496.557 883.11,496.557"
     stroke-linecap="square"
     id="polyline351"
     clip-path="url(#clipPath862)" />
  <polyline
     fill="none"
     stroke-width="0.5"
     stroke-linejoin="miter"
     stroke-dasharray="16, 0"
     stroke="#262626"
     points="126.856,41.8447 883.11,41.8447"
     stroke-linecap="square"
     id="polyline353"
     clip-path="url(#clipPath856)" />
  <polyline
     fill="none"
     stroke-width="0.5"
     stroke-linejoin="miter"
     stroke-dasharray="16, 0"
     stroke="#262626"
     points="126.856,496.557 126.856,41.8447"
     stroke-linecap="square"
     id="polyline355"
     clip-path="url(#clipPath850)" />
  <polyline
     fill="none"
     stroke-width="0.5"
     stroke-linejoin="miter"
     stroke-dasharray="16, 0"
     stroke="#262626"
     points="883.11,496.557 883.11,41.8447"
     stroke-linecap="square"
     id="polyline357"
     clip-path="url(#clipPath844)" />
  <g
     font-family="FreeSans"
     font-size="11px"
     xml:space="preserve"
     transform="translate(478.983,528.052)"
     font-weight="normal"
     font-style="normal"
     id="g361">
    <text
   fill="#262626"
   x="0 10 16 18 24 30 33 36 39 49"
   y="-2"
   id="text359">Weight [%]</text>
   </g>
  <g
     font-family="FreeSans"
     font-size="11px"
     xml:space="preserve"
     transform="rotate(-90,204.0274,105.1736)"
     font-weight="normal"
     font-style="normal"
     id="g365">
    <text
   fill="#262626"
   x="0 7 13 22 28 34 38 44 47 53 57 63 66 69 77"
   y="-3"
   id="text363">Temperature [C]</text>
   </g>
  <g
     font-family="FreeSans"
     font-size="11px"
     xml:space="preserve"
     transform="translate(334.983,31.8447)"
     font-weight="bold"
     font-style="normal"
     id="g369">
    <text
   fill="#000000"
   x="0 7 15 23 26 30 37 44 50 54 64 70 73 76 84 88 94 100 103 113 119 123 127 130 136 139 147 154 160 163 169 175 178 184 188 191 198 202 205 212 220 228 236 239 246 252 255 258 264 268 274 277 283 290 297 300 307 314 323 330 336"
   y="-3"
   id="text367">TGA (Thermal Gravimetric Analysis) of PHBH pellets and powder</text>
   </g>
  <polyline
     fill="none"
     stroke-width="0.5"
     stroke-linejoin="round"
     stroke="#0071bc"
     points="153.849,63.4977 154.69,63.2075 155.408,62.1638 156.096,61.9906 156.758,61.9386 157.413,61.9083 158.058,61.8694 158.699,61.8304 159.351,61.8044 160.016,61.7697 160.668,61.7308 161.331,61.7048 162.001,61.6788 162.669,61.6528 163.345,61.6269 164.022,61.5965 164.705,61.5662 165.389,61.5446 166.079,61.5272 166.781,61.4926 167.481,61.4666 168.182,61.4536 168.888,61.432 169.602,61.4189 170.318,61.393 171.024,61.367 171.741,61.3453 172.459,61.328 173.173,61.3107 173.895,61.2934 174.616,61.2717 175.343,61.2501 176.072,61.2327 176.805,61.2198 177.533,61.2024 178.261,61.1851 178.994,61.1721 179.746,61.1548 180.487,61.1332 181.23,61.1158 181.968,61.1028 182.709,61.0898 183.458,61.0725 184.212,61.0595 184.95,61.0422 185.702,61.0292 186.461,61.0162 187.216,61.0032 187.975,60.9859 188.733,60.9729 189.483,60.96 190.25,60.9426 191.012,60.934 191.79,60.9166 192.54,60.8993 193.323,60.895 194.085,60.8907 194.843,60.869 195.612,60.8603 196.389,60.8473 197.155,60.8344 197.918,60.8257 198.697,60.8083 199.455,60.804 200.22,60.7953 200.994,60.7824 201.771,60.7694 202.523,60.7607 203.3,60.7477 204.056,60.7434 204.834,60.7304 205.612,60.7217 206.389,60.7087 207.161,60.7044 207.953,60.6957 208.751,60.6871 209.52,60.6698 210.299,60.6481 211.09,60.6438 211.886,60.6395 212.675,60.6351 213.465,60.6178 214.242,60.6005 215.034,60.5962 215.821,60.5918 216.614,60.5702 217.399,60.5788 218.205,60.5745 218.992,60.5658 219.767,60.5572 220.555,60.5485 221.349,60.5615 222.139,60.5485 222.921,60.5226 223.708,60.5182 224.494,60.5182 225.295,60.5052 226.091,60.5052 226.875,60.5052 227.678,60.5009 228.478,60.5009 229.283,60.4922 230.092,60.4922 230.905,60.4965 231.698,60.4965 232.513,60.4879 233.322,60.4879 234.121,60.4792 234.918,60.4792 235.715,60.4749 236.511,60.4922 237.311,60.4792 238.114,60.4706 238.926,60.4749 239.737,60.4706 240.549,60.4619 241.391,60.4662 242.227,60.4792 243.069,60.4749 243.913,60.4619 244.766,60.4532 245.6,60.4532 246.434,60.4489 247.272,60.4446 248.111,60.4446 248.948,60.4446 249.785,60.4359 250.632,60.4316 251.461,60.4316 252.3,60.4229 253.135,60.4229 253.953,60.4186 254.792,60.4142 255.625,60.4056 256.451,60.41 257.295,60.4056 258.129,60.3926 258.965,60.384 259.792,60.384 260.628,60.3753 261.474,60.3753 262.297,60.3666 263.133,60.358 263.952,60.358 264.786,60.3536 265.621,60.3493 266.455,60.3407 267.294,60.3363 268.128,60.3276 268.949,60.3147 269.802,60.3104 270.632,60.306 271.477,60.2973 272.308,60.2887 273.145,60.28 273.975,60.28 274.814,60.28 275.649,60.267 276.483,60.254 277.329,60.254 278.158,60.2497 278.991,60.2454 279.825,60.2324 280.664,60.2367 281.499,60.2281 282.341,60.2107 283.172,60.2064 284.011,60.215 284.854,60.1978 285.685,60.1804 286.544,60.1804 287.386,60.1761 288.215,60.1718 289.053,60.1631 289.896,60.1761 290.737,60.1674 291.574,60.1588 292.41,60.1414 293.248,60.1328 294.092,60.1284 294.938,60.1241 295.769,60.1198 296.621,60.1284 297.466,60.1198 298.299,60.1155 299.155,60.1068 299.991,60.1068 300.833,60.1025 301.686,60.0981 302.52,60.0938 303.36,60.0895 304.208,60.0895 305.05,60.0895 305.888,60.0808 306.728,60.0721 307.583,60.0721 308.424,60.0678 309.276,60.0721 310.113,60.0678 310.964,60.0721 311.813,60.0591 312.665,60.0591 313.51,60.0591 314.36,60.0635 315.211,60.0635 316.057,60.0635 316.906,60.0678 317.758,60.0721 318.605,60.0721 319.447,60.0765 320.309,60.0765 321.156,60.0938 322.007,60.0981 322.861,60.1111 323.704,60.1198 324.561,60.1414 325.413,60.1458 326.257,60.1588 327.101,60.1891 327.951,60.2107 328.797,60.2367 329.643,60.2714 330.497,60.3147 331.331,60.3536 332.179,60.4056 333.023,60.4619 333.867,60.5269 334.71,60.6091 335.552,60.6871 336.404,60.7867 337.24,60.895 338.089,61.0249 338.926,61.1851 339.767,61.354 340.613,61.5576 341.443,61.7957 342.278,62.0815 343.116,62.4193 343.947,62.8134 344.764,63.2941 345.591,63.8515 346.41,64.5045 347.226,65.2862 348.027,66.235 348.824,67.4103 349.611,68.9174 350.366,70.7805 351.099,73.2103 351.807,76.2885 352.49,80.319 353.188,85.171 353.835,90.6241 354.475,97.5968 355.127,105.364 355.736,113.746 356.348,123.72 356.996,134.516 357.671,145.072 358.314,156.291 358.87,168.6 359.422,183.122 360.036,198.518 360.628,213.881 361.246,229.988 361.846,247.304 362.424,265.829 362.981,286.202 363.594,307.216 364.219,328.642 364.819,350.91 365.544,373.776 366.201,396.69 366.965,420.365 367.806,443.229 368.921,464.939 370.548,481.32 372.263,487.437 373.798,488.177 375.201,488.349 376.523,488.439 377.768,488.498 378.956,488.541 380.101,488.562 381.198,488.581 382.263,488.616 383.298,488.627 384.299,488.649 385.286,488.666 386.261,488.688 387.224,488.709 388.174,488.724 389.101,488.733 390.031,488.756 390.944,488.766 391.861,488.783 392.76,488.797 393.66,488.814 394.541,488.827 395.443,488.844 396.327,488.863 397.205,488.874 398.082,488.887 398.956,488.899 399.842,488.91 400.704,488.922 401.582,488.941 402.451,488.942 403.317,488.968 404.194,488.984 405.055,488.978 405.913,488.99 406.782,489.003 407.646,489.016 408.5,489.03 409.358,489.043 410.22,489.052 411.073,489.061 411.931,489.072 412.792,489.089 413.644,489.1 414.504,489.115 415.349,489.125 416.197,489.135 417.056,489.148 417.913,489.158 418.76,489.166 419.617,489.177 420.471,489.193 421.322,489.2 422.172,489.238 423.021,489.249 423.866,489.254 424.724,489.263 425.568,489.274 426.418,489.284 427.251,489.289 428.107,489.299 428.961,489.287 429.813,489.291 430.661,489.304 431.502,489.314 432.345,489.319 433.196,489.324 434.043,489.329 434.892,489.341 435.737,489.346 436.584,489.351 437.424,489.355 438.268,489.36 439.12,489.36 439.962,489.382 440.808,489.389 441.661,489.376 442.504,489.386 443.349,489.392 444.198,489.4 445.036,489.405 445.878,489.405 446.737,489.412 447.584,489.419 448.42,489.42 449.269,489.436 450.114,489.455 450.961,489.465 451.8,489.474 452.658,489.478 453.504,489.496 454.344,489.508 455.201,489.509 456.044,489.513 456.89,489.526 457.74,489.537 458.588,489.544 459.436,489.546 460.279,489.552 461.126,489.567 461.973,489.569 462.821,489.578 463.658,489.591 464.508,489.594 465.361,489.598 466.194,489.609 467.043,489.62 467.9,489.628 468.739,489.632 469.584,489.64 470.429,489.645 471.273,489.655 472.122,489.658 472.969,489.668 473.809,489.683 474.658,489.686 475.497,489.688 476.346,489.696 477.182,489.703 478.031,489.703 478.866,489.71 479.713,489.717 480.555,489.718 481.404,489.708 482.239,489.705 483.075,489.704 483.928,489.706 484.761,489.71 485.601,489.717 486.429,489.718 487.28,489.718 488.116,489.717 488.963,489.731 489.8,489.733 490.651,489.733 491.496,489.733 492.33,489.733 493.176,489.733 494.015,489.733 494.863,489.733 495.703,489.733 496.536,489.733 497.386,489.733 498.225,489.733 499.062,489.733 499.908,489.731 500.753,489.721 501.596,489.723 502.433,489.724 503.276,489.732 504.12,489.748 504.959,489.748 505.794,489.741 506.636,489.738 507.48,489.737 508.321,489.734 509.155,489.735 509.995,489.718 510.835,489.716 511.679,489.72 512.524,489.732 513.363,489.733 514.206,489.733 515.054,489.727 515.892,489.727 516.736,489.728 517.571,489.733 518.412,489.733 519.262,489.73 520.1,489.727 520.941,489.732 521.788,489.73 522.627,489.729 523.479,489.73 524.313,489.733 525.15,489.728 525.994,489.73 526.836,489.733 527.677,489.728 528.522,489.728 529.364,489.733 530.202,489.733 531.047,489.733 531.887,489.733 532.729,489.741 533.566,489.734 534.405,489.741 535.25,489.738 536.089,489.74 536.931,489.748 537.776,489.746 538.616,489.738 539.454,489.745 540.289,489.738 541.129,489.737 541.967,489.741 542.805,489.736 543.643,489.733 544.487,489.743 545.323,489.736 546.167,489.735 547.003,489.733 547.839,489.733 548.681,489.735 549.513,489.733 550.353,489.733 551.189,489.733 552.027,489.736 552.868,489.733 553.696,489.732 554.533,489.723 555.374,489.718 556.213,489.724 557.046,489.725 557.888,489.719 558.724,489.718 559.56,489.713 560.398,489.712 561.235,489.715 562.071,489.715 562.914,489.708 563.749,489.704 564.581,489.703 565.42,489.703 566.26,489.701 567.094,489.693 567.93,489.689 568.766,489.688 569.595,489.683 570.436,489.675 571.269,489.673 572.112,489.675 572.939,489.674 573.776,489.673 574.6,489.673 575.438,489.67 576.273,489.66 577.107,489.655 577.942,489.657 578.785,489.653 579.619,489.647 580.449,489.648 581.289,489.644 582.118,489.643 582.957,489.639 583.786,489.632 584.619,489.629 585.451,489.629 586.289,489.629 587.124,489.627 587.955,489.617 588.788,489.614 589.62,489.614 590.456,489.613 591.281,489.61 592.114,489.607 592.948,489.599 593.779,489.595 594.615,489.594 595.447,489.592 596.278,489.585 597.107,489.584 597.94,489.584 598.777,489.582 599.601,489.572 600.434,489.569 601.266,489.569 602.098,489.564 602.923,489.558 603.76,489.555 604.602,489.554 605.424,489.554 606.253,489.551 607.083,489.546 607.915,489.542 608.745,489.539 609.58,489.536 610.408,489.533 611.24,489.528 612.059,489.524 612.895,489.524 613.721,489.519 614.552,489.516 615.389,489.51 616.215,489.509 617.034,489.508 617.871,489.497 618.7,489.495 619.53,489.495 620.36,489.485 621.186,489.48 622.019,489.48 622.845,489.48 623.672,489.48 624.498,489.471 625.327,489.465 626.156,489.465 626.994,489.461 627.816,489.46 628.654,489.457 629.475,489.451 630.301,489.45 631.128,489.449 631.95,489.44 632.782,489.435 633.607,489.435 634.429,489.432 635.255,489.422 636.083,489.42 636.909,489.42 637.736,489.415 638.569,489.415 639.397,489.41 640.224,489.406 641.042,489.405 641.867,489.405 642.696,489.402 643.517,489.396 644.341,489.39 645.169,489.384 645.995,489.389 646.823,489.39 647.651,489.383 648.474,489.376 649.3,489.375 650.116,489.367 650.946,489.363 651.766,489.364 652.598,489.361 653.411,489.36 654.243,489.36 655.065,489.357 655.888,489.347 656.712,489.346 657.534,489.345 658.354,489.335 659.179,489.339 660.004,489.338 660.829,489.334 661.649,489.331 662.476,489.326 663.299,489.323 664.119,489.316 664.948,489.316 665.767,489.316 666.584,489.316 667.407,489.316 668.233,489.312 669.05,489.304 669.873,489.301 670.687,489.294 671.512,489.288 672.333,489.293 673.157,489.295 673.979,489.286 674.8,489.283 675.624,489.277 676.44,489.274 677.263,489.273 678.081,489.271 678.899,489.271 679.72,489.266 680.545,489.257 681.36,489.256 682.18,489.256 683.001,489.256 683.819,489.256 684.642,489.249 685.462,489.242 686.279,489.241 687.096,489.24 687.92,489.236 688.73,489.228 689.558,489.227 690.381,489.229 691.206,489.23 692.018,489.225 692.833,489.221 693.657,489.215 694.473,489.212 695.292,489.215 696.112,489.208 696.925,489.205 697.751,489.21 698.57,489.206 699.381,489.203 700.204,489.197 701.017,489.192 701.842,489.192 702.657,489.189 703.483,489.183 704.294,489.182 705.119,489.182 705.929,489.182 706.744,489.182 707.561,489.177 708.38,489.177 709.193,489.17 710.012,489.167 710.827,489.167 711.646,489.167 712.454,489.167 713.277,489.162 714.089,489.153 714.906,489.152 715.727,489.152 716.532,489.152 717.353,489.149 718.166,489.148 718.984,489.14 719.806,489.139 720.615,489.139 721.433,489.137 722.244,489.137 723.06,489.137 723.877,489.128 724.692,489.123 725.514,489.122 726.328,489.122 727.143,489.122 727.957,489.112 728.771,489.11 729.587,489.108 730.4,489.107 731.211,489.107 732.023,489.107 732.833,489.099 733.652,489.095 734.459,489.093 735.28,489.087 736.083,489.09 736.9,489.087 737.709,489.077 738.523,489.077 739.333,489.077 740.146,489.076 740.961,489.065 741.776,489.064 742.59,489.066 743.407,489.061 744.222,489.058 745.034,489.057 745.849,489.06 746.654,489.057 747.473,489.056 748.291,489.051 749.101,489.048 749.914,489.047 750.728,489.047 751.541,489.047 752.353,489.047 753.163,489.044 753.978,489.036 754.788,489.043 755.6,489.035 756.405,489.033 757.225,489.029 758.028,489.031 758.841,489.026 759.652,489.021 760.462,489.023 761.275,489.019 762.081,489.018 762.896,489.018 763.706,489.018 764.522,489.016 765.327,489.006 766.142,489.003 766.953,489.006 767.77,489.004 768.571,488.997 769.38,489.003 770.191,489.003 771.005,488.999 771.809,488.993 772.62,488.992 773.437,488.989 774.249,488.983 775.055,488.976 775.869,488.983 776.683,488.975 777.489,488.973 778.305,488.973 779.104,488.971 779.917,488.972 780.729,488.973 781.538,488.973 782.351,488.968 783.157,488.959 783.966,488.955 784.782,488.957 785.589,488.958 786.397,488.955 787.204,488.949 788.011,488.951 788.82,488.943 789.632,488.943 790.446,488.943 791.258,488.943 792.062,488.943 792.874,488.938 793.68,488.935 794.481,488.937 795.3,488.93 796.103,488.928 796.907,488.928 797.723,488.922 798.529,488.918 799.333,488.914 800.142,488.913 800.942,488.913 801.754,488.913 802.565,488.913 803.379,488.913 804.183,488.907 804.979,488.901 805.793,488.897 806.599,488.896 807.407,488.898 808.207,488.899 809.016,488.893 809.822,488.892 810.628,488.885 811.437,488.884 812.251,488.884 813.049,488.884 813.859,488.884 814.67,488.883 815.473,488.877 816.281,488.873 817.092,488.869 817.902,488.869 818.708,488.869 819.514,488.869 820.322,488.869 821.123,488.865 821.93,488.863 822.734,488.864 823.545,488.859 824.353,488.854 825.156,488.854 825.967,488.858 826.782,488.855 827.585,488.854 828.39,488.854 829.189,488.854 830.002,488.854 830.807,488.854 831.615,488.854 832.412,488.854 833.22,488.847 834.017,488.84 834.823,488.839 835.633,488.839 836.443,488.839 837.244,488.839 838.053,488.839 838.858,488.839 839.665,488.846 840.467,488.837 841.27,488.833 842.076,488.827 842.885,488.829 843.682,488.825 844.479,488.824 845.289,488.824 846.094,488.824 846.901,488.824 847.701,488.82 848.509,488.823 849.308,488.817 850.111,488.815 850.92,488.81 851.717,488.809 852.519,488.809 853.323,488.809 854.13,488.806 854.928,488.808 855.728,488.809 856.536,488.799 857.346,488.795 858.141,488.794 858.95,488.794 859.745,488.791 860.551,488.786 861.359,488.791 862.16,488.781 862.96,488.779 863.765,488.779 864.565,488.779 865.362,488.779 866.167,488.774 866.965,488.777 867.77,488.779 868.566,488.779 869.368,488.768 870.168,488.764 870.969,488.764 871.769,488.759"
     stroke-linecap="butt"
     id="polyline371"
     clip-path="url(#clipPath838)" />
  <polyline
     fill="none"
     stroke-width="0.5"
     stroke-linejoin="round"
     stroke="#d85218"
     points="155.156,63.4977 155.998,62.363 156.749,58.4612 157.445,57.7683 158.086,57.5561 158.729,57.4521 159.361,57.3872 160.001,57.3179 160.637,57.2486 161.28,57.175 161.936,57.1014 162.585,57.0364 163.262,56.9714 163.941,56.9022 164.612,56.8329 165.282,56.7549 165.976,56.677 166.667,56.5731 167.352,56.4864 168.057,56.4128 168.749,56.3522 169.456,56.2872 170.168,56.2266 170.869,56.179 171.585,56.1053 172.297,56.0447 173.018,55.9927 173.742,55.9278 174.453,55.8758 175.186,55.8022 175.898,55.7372 176.632,55.6896 177.357,55.629 178.089,55.5683 178.826,55.5034 179.566,55.4644 180.304,55.3951 181.039,55.3345 181.782,55.2739 182.527,55.2262 183.276,55.1656 184.021,55.1093 184.775,55.0487 185.531,54.9924 186.29,54.9404 187.046,54.8841 187.798,54.8192 188.566,54.7629 189.312,54.7022 190.077,54.6632 190.85,54.6156 191.605,54.555 192.378,54.5074 193.152,54.4294 193.918,54.3904 194.677,54.3211 195.447,54.2908 196.222,54.2302 196.995,54.1739 197.761,54.1176 198.522,54.0569 199.308,54.0179 200.078,53.979 200.848,53.9184 201.624,53.8664 202.402,53.8101 203.194,53.7711 203.967,53.7235 204.748,53.6759 205.53,53.6239 206.314,53.5633 207.095,53.507 207.886,53.4637 208.672,53.4203 209.46,53.3771 210.241,53.3164 211.044,53.2688 211.827,53.2298 212.614,53.1865 213.396,53.1346 214.197,53.0956 214.983,53.0306 215.775,52.9786 216.568,52.944 217.362,52.8747 218.164,52.8271 218.944,52.7968 219.734,52.7404 220.538,52.7188 221.326,52.6668 222.121,52.6235 222.919,52.5672 223.726,52.5239 224.523,52.4806 225.318,52.433 226.109,52.381 226.911,52.3507 227.707,52.303 228.511,52.2511 229.309,52.2252 230.114,52.1818 230.912,52.1385 231.703,52.0995 232.521,52.0389 233.33,51.9999 234.148,51.9653 234.974,51.9307 235.78,51.8917 236.606,51.8484 237.427,51.8224 238.244,51.7747 239.059,51.7228 239.889,51.6881 240.703,51.6361 241.516,51.5972 242.347,51.5712 243.171,51.5236 244,51.4932 244.82,51.4586 245.645,51.4066 246.46,51.372 247.282,51.3373 248.109,51.307 248.933,51.2681 249.759,51.2377 250.578,51.1988 251.406,51.1815 252.231,51.1295 253.052,51.0862 253.871,51.0645 254.701,51.0299 255.516,50.9952 256.351,50.9822 257.17,50.9433 258.004,50.9043 258.828,50.874 259.651,50.835 260.483,50.8004 261.305,50.7527 262.143,50.731 262.968,50.7007 263.795,50.6661 264.633,50.6185 265.459,50.5968 266.286,50.5622 267.116,50.5275 267.94,50.4886 268.778,50.4582 269.601,50.4323 270.43,50.4062 271.267,50.3889 272.088,50.3499 272.919,50.3153 273.755,50.298 274.592,50.2634 275.421,50.2374 276.252,50.2028 277.08,50.1724 277.925,50.1551 278.758,50.1205 279.589,50.1031 280.426,50.0728 281.266,50.0555 282.098,50.0251 282.938,49.9775 283.768,49.9559 284.599,49.9299 285.435,49.9082 286.276,49.8779 287.111,49.8606 287.939,49.839 288.791,49.8086 289.622,49.8086 290.453,49.8086 291.289,49.774 292.14,49.761 292.975,49.7567 293.811,49.7393 294.657,49.7134 295.488,49.709 296.333,49.709 297.172,49.709 297.997,49.709 298.844,49.709 299.679,49.709 300.525,49.709 301.37,49.7134 302.203,49.748 303.05,49.774 303.897,49.787 304.738,49.826 305.574,49.8563 306.426,49.8866 307.268,49.9472 308.104,49.9819 308.944,50.0382 309.78,50.0858 310.63,50.1594 311.486,50.22 312.327,50.3023 313.176,50.4062 314.012,50.4842 314.859,50.5881 315.698,50.7094 316.538,50.8394 317.379,50.9779 318.234,51.1338 319.077,51.294 319.927,51.4586 320.779,51.6318 321.624,51.8397 322.48,52.0432 323.321,52.2728 324.165,52.5153 325.018,52.7708 325.859,53.0479 326.707,53.3078 327.561,53.6109 328.405,53.9401 329.255,54.2908 330.108,54.6546 330.958,55.0573 331.818,55.4731 332.665,55.9191 333.509,56.3868 334.373,56.9022 335.214,57.4305 336.066,58.0065 336.914,58.5998 337.764,59.2363 338.613,59.9076 339.454,60.6308 340.306,61.3973 341.155,62.2548 341.996,63.2032 342.846,64.226 343.68,65.3975 344.528,66.7062 345.371,68.1946 346.213,69.8788 347.05,71.7725 347.888,73.914 348.727,76.3755 349.558,79.1731 350.398,82.4492 351.236,86.2484 352.059,90.6999 352.889,96.0261 353.705,102.208 354.523,109.203 355.344,117.009 356.157,125.556 356.941,135.129 357.626,145.877 358.388,157.582 359.137,170.252 359.897,184.441 360.655,199.935 361.413,217.03 362.169,235.191 362.931,254.337 363.691,274.949 364.451,296.711 365.228,319.433 366.001,343.051 366.786,367.209 367.601,391.644 368.426,415.711 369.285,438.653 370.216,458.493 371.21,472.514 372.295,479.756 373.288,482.245 374.274,482.889 375.237,483.084 376.191,483.198 377.122,483.272 378.043,483.326 378.959,483.384 379.858,483.406 380.749,483.455 381.633,483.47 382.527,483.47 383.401,483.499 384.282,483.517 385.142,483.53 386.015,483.563 386.878,483.574 387.744,483.586 388.597,483.615 389.457,483.629 390.311,483.662 391.166,483.667 392.028,483.667 392.884,483.692 393.741,483.714 394.589,483.717 395.447,483.735 396.296,483.762 397.149,483.766 397.998,483.795 398.848,483.815 399.69,483.817 400.546,483.833 401.398,483.87 402.243,483.886 403.092,483.887 403.934,483.913 404.788,483.931 405.628,483.96 406.471,483.963 407.321,483.98 408.173,483.995 409.016,484.01 409.869,484.013 410.708,484.036 411.549,484.062 412.388,484.08 413.235,484.108 414.078,484.111 414.921,484.141 415.761,484.161 416.609,484.161 417.445,484.172 418.292,484.19 419.134,484.207 419.985,484.211 420.823,484.212 421.664,484.246 422.504,484.259 423.35,484.26 424.189,484.26 425.029,484.271 425.877,484.304 426.714,484.31 427.559,484.329 428.395,484.331 429.24,484.354 430.089,484.358 430.934,484.359 431.77,484.381 432.612,484.392 433.453,484.398 434.292,484.407 435.13,484.408 435.976,484.41 436.819,484.43 437.657,484.463 438.5,484.46 439.338,484.469 440.173,484.49 441.021,484.501 441.868,484.507 442.708,484.53 443.553,484.553 444.402,484.556 445.244,484.556 446.086,484.556 446.923,484.587 447.759,484.641 448.599,484.623 449.444,484.628 450.289,484.648 451.129,484.655 451.973,484.667 452.803,484.686 453.652,484.704 454.491,484.704 455.329,484.734 456.179,484.752 457.008,484.754 457.849,484.759 458.687,484.792 459.537,484.802 460.366,484.803 461.201,484.826 462.049,484.853 462.891,484.858 463.733,484.895 464.572,484.901 465.407,484.92 466.246,484.918 467.088,484.944 467.925,484.951 468.758,484.983 469.596,485.011 470.443,485.039 471.276,485.03 472.112,485.047 472.949,485.051 473.79,485.081 474.618,485.094 475.459,485.099 476.309,485.099 477.141,485.112 477.969,485.135 478.811,485.16 479.641,485.149 480.483,485.172 481.319,485.195 482.155,485.198 482.992,485.204 483.829,485.236 484.667,485.27 485.499,485.256 486.341,485.259 487.174,485.292 488.008,485.283 488.845,485.305 489.677,485.307 490.513,485.298 491.346,485.297 492.184,485.306 493.015,485.316 493.858,485.303 494.696,485.332 495.528,485.314 496.361,485.298 497.191,485.314 498.029,485.323 498.864,485.342 499.701,485.341 500.535,485.31 501.365,485.334 502.194,485.345 503.031,485.346 503.866,485.341 504.701,485.308 505.528,485.327 506.369,485.343 507.204,485.311 508.035,485.303 508.861,485.3 509.696,485.297 510.528,485.297 511.369,485.297 512.206,485.292 513.032,485.259 513.868,485.248 514.705,485.248 515.533,485.248 516.369,485.248 517.203,485.246 518.034,485.235 518.869,485.246 519.694,485.248 520.524,485.242 521.361,485.214 522.188,485.206 523.018,485.199 523.853,485.193 524.688,485.182 525.515,485.166 526.345,485.15 527.185,485.149 528.016,485.143 528.85,485.149 529.67,485.137 530.504,485.105 531.345,485.1 532.171,485.1 532.997,485.094 533.831,485.095 534.666,485.064 535.496,485.051 536.336,485.05 537.165,485.05 537.991,485.05 538.819,485.027 539.656,485.004 540.479,484.996 541.311,484.995 542.146,484.966 542.972,484.971 543.802,484.977 544.633,484.972 545.464,484.973 546.296,484.953 547.124,484.944 547.954,484.915 548.779,484.903 549.607,484.902 550.432,484.882 551.263,484.887 552.093,484.859 552.921,484.853 553.747,484.853 554.578,484.829 555.407,484.819 556.236,484.805 557.062,484.803 557.893,484.803 558.718,484.774 559.544,484.775 560.373,484.756 561.198,484.754 562.027,484.754 562.854,484.729 563.681,484.707 564.51,484.705 565.331,484.704 566.162,484.704 566.983,484.678 567.81,484.669 568.639,484.657 569.463,484.655 570.293,484.655 571.119,484.63 571.941,484.608 572.774,484.606 573.604,484.6 574.42,484.584 575.245,484.595 576.074,484.581 576.898,484.559 577.729,484.556 578.553,484.545 579.372,484.522 580.195,484.509 581.019,484.507 581.842,484.507 582.671,484.479 583.494,484.459 584.314,484.458 585.141,484.458 585.961,484.456 586.787,484.425 587.612,484.409 588.429,484.408 589.254,484.398 590.082,484.384 590.905,484.359 591.727,484.359 592.553,484.359 593.377,484.359 594.197,484.33 595.02,484.309 595.843,484.309 596.667,484.309 597.487,484.285 598.307,484.268 599.128,484.265 599.952,484.26 600.773,484.26 601.595,484.259 602.417,484.224 603.241,484.211 604.058,484.211 604.88,484.211 605.695,484.193 606.519,484.187 607.342,484.178 608.163,484.162 608.989,484.161 609.796,484.16 610.63,484.125 611.445,484.117 612.261,484.115 613.087,484.112 613.908,484.112 614.726,484.089 615.545,484.079 616.363,484.069 617.185,484.063 618,484.062 618.822,484.051 619.646,484.03 620.457,484.024 621.273,484.02 622.096,484.014 622.912,484.013 623.726,484.013 624.547,483.978 625.371,483.965 626.188,483.964 627.001,483.964 627.814,483.964 628.63,483.946 629.442,483.924 630.26,483.918 631.071,483.915 631.882,483.914 632.701,483.914 633.524,483.914 634.348,483.914 635.162,483.914 635.979,483.887 636.806,483.866 637.62,483.865 638.443,483.865 639.267,483.865 640.086,483.865 640.901,483.865 641.72,483.865 642.546,483.853 643.363,483.821 644.186,483.815 645.002,483.816 645.819,483.815 646.632,483.815 647.455,483.814 648.272,483.81 649.081,483.815 649.906,483.815 650.724,483.801 651.551,483.782 652.359,483.761 653.18,483.763 653.997,483.766 654.816,483.766 655.629,483.766 656.438,483.766 657.259,483.766 658.074,483.766 658.89,483.766 659.705,483.783 660.525,483.788 661.346,483.767 662.162,483.766 662.975,483.766 663.793,483.766 664.606,483.766 665.423,483.766 666.233,483.766 667.056,483.766 667.875,483.766 668.691,483.766 669.506,483.766 670.316,483.766 671.133,483.766 671.95,483.772 672.763,483.777 673.585,483.777 674.403,483.791 675.224,483.813 676.038,483.815 676.854,483.815 677.67,483.815 678.484,483.815 679.304,483.815 680.122,483.815 680.936,483.815 681.75,483.832 682.568,483.841 683.386,483.862 684.206,483.865 685.023,483.865 685.832,483.883 686.651,483.887 687.479,483.891 688.293,483.892 689.104,483.914 689.928,483.914 690.748,483.914 691.564,483.932 692.382,483.959 693.194,483.964 694.015,483.969 694.829,484.006 695.646,484.012 696.466,484.024 697.282,484.057 698.096,484.062 698.919,484.062 699.735,484.062 700.555,484.085 701.374,484.112 702.187,484.112 703.008,484.141 703.823,484.159 704.643,484.19 705.466,484.211 706.287,484.216 707.107,484.253 707.928,484.261 708.742,484.296 709.568,484.309 710.383,484.321 711.2,484.353 712.023,484.39 712.837,484.407 713.666,484.419 714.484,484.449 715.304,484.457 716.117,484.5 716.942,484.525 717.764,484.567 718.585,484.601 719.4,484.622 720.22,484.651 721.044,484.684 721.87,484.704 722.691,484.739 723.51,484.764 724.333,484.796 725.142,484.825 725.966,484.864 726.789,484.895 727.612,484.924 728.431,484.967 729.256,485.002 730.085,485.034 730.907,485.081 731.726,485.122 732.541,485.181 733.373,485.208 734.192,485.242 735.015,485.265 735.836,485.304 736.659,485.357 737.49,485.408 738.307,485.445 739.128,485.486 739.955,485.537 740.775,485.58 741.597,485.639 742.419,485.687 743.245,485.729 744.07,485.794 744.895,485.853 745.712,485.891 746.547,485.967 747.366,485.996 748.187,486.048 749.018,486.101 749.845,486.155 750.664,486.224 751.495,486.278 752.324,486.345 753.149,486.407 753.978,486.478 754.799,486.526 755.627,486.594 756.459,486.643 757.292,486.713 758.115,486.781 758.944,486.839 759.77,486.925 760.596,486.987 761.429,487.052 762.254,487.131 763.087,487.207 763.923,487.271 764.759,487.35 765.585,487.419 766.424,487.499 767.257,487.574 768.088,487.666 768.917,487.742 769.752,487.817 770.586,487.884 771.418,487.958 772.255,488.064 773.09,488.143 773.933,488.216 774.762,488.301 775.601,488.392 776.438,488.485 777.275,488.566 778.114,488.655 778.948,488.745 779.786,488.847 780.627,488.949 781.462,489.036 782.301,489.141 783.14,489.246 783.971,489.336 784.817,489.42 785.653,489.526 786.493,489.627 787.331,489.732 788.17,489.841 789.01,489.932 789.845,490.042 790.682,490.137 791.521,490.25 792.357,490.362 793.189,490.474 794.025,490.59 794.862,490.701 795.694,490.805 796.528,490.905 797.358,491.025 798.185,491.153 799.018,491.261 799.849,491.391 800.676,491.525 801.502,491.624 802.331,491.739 803.153,491.877 803.978,491.994 804.802,492.123 805.626,492.241 806.446,492.354 807.262,492.497 808.09,492.628 808.9,492.754 809.723,492.874 810.537,493.007 811.352,493.136 812.166,493.263 812.976,493.396 813.786,493.522 814.601,493.657 815.409,493.803 816.221,493.934 817.026,494.06 817.837,494.193 818.647,494.344 819.456,494.477 820.261,494.62 821.067,494.752 821.875,494.89 822.683,495.018 823.487,495.169 824.292,495.312 825.097,495.449 825.902,495.596 826.701,495.736 827.509,495.867 828.307,496.017 829.106,496.157 829.916,496.291 830.721,496.424 831.524,496.569 832.322,496.729 833.121,496.87 833.922,497.007 833.947,497.012"
     stroke-linecap="butt"
     id="polyline373"
     clip-path="url(#clipPath832)"
     style="stroke-width:1.3;stroke-dasharray:none" />
  <polygon
     fill="#ffffff"
     shape-rendering="crispEdges"
     points="775.985,52.4697 775.985,90.7197 872.485,90.7197 872.485,52.4697 "
     id="polygon381"
     clip-path="url(#clipPath1886)" />
  <polyline
     fill="none"
     stroke-width="0.5"
     stroke-linejoin="miter"
     stroke-dasharray="16, 0"
     stroke="#262626"
     points="775.985,90.7197 872.485,90.7197"
     stroke-linecap="square"
     id="polyline383"
     clip-path="url(#clipPath1882)" />
  <polyline
     fill="none"
     stroke-width="0.5"
     stroke-linejoin="miter"
     stroke-dasharray="16, 0"
     stroke="#262626"
     points="775.985,52.4697 872.485,52.4697"
     stroke-linecap="square"
     id="polyline385"
     clip-path="url(#clipPath1878)" />
  <polyline
     fill="none"
     stroke-width="0.5"
     stroke-linejoin="miter"
     stroke-dasharray="16, 0"
     stroke="#262626"
     points="775.985,90.7197 775.985,52.4697"
     stroke-linecap="square"
     id="polyline387"
     clip-path="url(#clipPath1874)" />
  <polyline
     fill="none"
     stroke-width="0.5"
     stroke-linejoin="miter"
     stroke-dasharray="16, 0"
     stroke="#262626"
     points="872.485,90.7197 872.485,52.4697"
     stroke-linecap="square"
     id="polyline389"
     clip-path="url(#clipPath1870)" />
  <polyline
     fill="none"
     stroke-width="0.5"
     stroke-linejoin="round"
     stroke="#0071bc"
     points="781.297,63.3604 807.86,63.3604"
     stroke-linecap="butt"
     id="polyline391"
     clip-path="url(#clipPath1866)" />
  <g
     font-family="FreeSans"
     font-size="9px"
     xml:space="preserve"
     transform="translate(813.172,67.8603)"
     font-weight="normal"
     font-style="normal"
     id="g395">
    <text
   fill="#000000"
   x="0 6 13 19 21 23 29 34 36 38 43"
   y="-1"
   id="text393">TGA: Pellet</text>
   </g>
  <g
     font-family="FreeSans"
     font-size="9px"
     xml:space="preserve"
     transform="translate(813.172,84.3291)"
     font-weight="normal"
     font-style="normal"
     id="g401">
    <text
   fill="#000000"
   x="0 6 13 19 21 23 29 34 41 46 51"
   y="-1"
   id="text399">TGA: Powder</text>
   </g>
</svg>
