<?xml version="1.0" encoding="UTF-8" standalone="no"?>
<!-- Created with Inkscape (http://www.inkscape.org/) -->

<svg
   width="297mm"
   height="210mm"
   viewBox="0 0 297 210"
   version="1.1"
   id="svg613"
   xml:space="preserve"
   inkscape:version="1.2.1 (9c6d41e410, 2022-07-14)"
   sodipodi:docname="3dprint_file_pipeline_scheme.svg"
   xmlns:inkscape="http://www.inkscape.org/namespaces/inkscape"
   xmlns:sodipodi="http://sodipodi.sourceforge.net/DTD/sodipodi-0.dtd"
   xmlns="http://www.w3.org/2000/svg"
   xmlns:svg="http://www.w3.org/2000/svg"><sodipodi:namedview
     id="namedview615"
     pagecolor="#ffffff"
     bordercolor="#000000"
     borderopacity="0.25"
     inkscape:showpageshadow="2"
     inkscape:pageopacity="0.0"
     inkscape:pagecheckerboard="0"
     inkscape:deskcolor="#d1d1d1"
     inkscape:document-units="mm"
     showgrid="false"
     inkscape:zoom="1.9326197"
     inkscape:cx="514.58651"
     inkscape:cy="391.4376"
     inkscape:window-width="3824"
     inkscape:window-height="2043"
     inkscape:window-x="26"
     inkscape:window-y="23"
     inkscape:window-maximized="0"
     inkscape:current-layer="layer1" /><defs
     id="defs610" /><g
     inkscape:label="Layer 1"
     inkscape:groupmode="layer"
     id="layer1"><g
       id="g632"
       transform="matrix(0.26458333,0,0,0.26458333,12.991331,10.535111)"><path
         d="m 84.665,108.417 c -17.386,0 -31.479,-13.294 -31.479,-29.691 0,-16.395 14.093,-29.689 31.479,-29.689 17.387,0 31.48,13.294 31.48,29.689 0,16.397 -14.093,29.691 -31.48,29.691 z"
         fill="#ffffff"
         id="path617" /><path
         d="m 66.54,75.381 c 0.23,-4.165 2.275,-7.841 5.353,-10.444 3.024,-2.559 7.087,-4.122 11.524,-4.122 4.437,0 8.5,1.563 11.524,4.122 3.078,2.603 5.12,6.279 5.355,10.442 0.235,4.287 -1.486,8.27 -4.506,11.216 -3.079,3.002 -7.466,4.888 -12.373,4.888 -4.907,0 -9.297,-1.886 -12.376,-4.888 -3.02,-2.948 -4.738,-6.929 -4.5,-11.214"
         fill="#265787"
         id="path619" /><path
         d="m 39.657,83.815 c 0.028,1.627 0.55,4.797 1.33,7.278 1.64,5.24 4.424,10.088 8.299,14.364 a 42.897,42.897 0 0 0 14.514,10.42 46.667,46.667 0 0 0 19.064,3.967 46.811,46.811 0 0 0 19.058,-4.03 c 5.649,-2.528 10.536,-6.066 14.509,-10.467 3.867,-4.288 6.647,-9.15 8.29,-14.392 a 36.59,36.59 0 0 0 1.557,-8.033 c 0.207,-2.656 0.119,-5.32 -0.257,-7.978 a 37.1,37.1 0 0 0 -5.29,-14.477 40.573,40.573 0 0 0 -9.65,-10.642 l 0.006,-0.005 -39.052,-29.99 -0.1,-0.08 c -2.567,-1.965 -6.876,-1.96 -9.692,0.013 -2.852,1.995 -3.173,5.289 -0.64,7.372 l -0.007,0.008 16.286,13.25 -49.651,0.05 h -0.07 c -4.102,0.002 -8.043,2.7 -8.829,6.099 -0.797,3.469 1.992,6.343 6.254,6.362 v 0.011 L 50.749,52.868 5.84,87.337 5.668,87.467 c -4.233,3.242 -5.605,8.638 -2.939,12.052 2.711,3.474 8.467,3.477 12.75,0.016 L 39.986,79.481 c 0,0 -0.354,2.71 -0.329,4.334 z m 62.976,9.062 c -5.048,5.15 -12.113,8.066 -19.77,8.08 -7.656,0.017 -14.726,-2.877 -19.777,-8.016 a 23.495,23.495 0 0 1 -5.4,-8.45 21.98,21.98 0 0 1 -1.241,-9.439 22.325,22.325 0 0 1 2.71,-8.89 24.552,24.552 0 0 1 6.008,-7.145 c 4.907,-4.002 11.153,-6.166 17.695,-6.174 6.542,-0.008 12.788,2.138 17.695,6.124 a 24.436,24.436 0 0 1 6.008,7.12 22.375,22.375 0 0 1 2.71,8.885 21.996,21.996 0 0 1 -1.241,9.438 23.623,23.623 0 0 1 -5.397,8.467"
         fill="#e87d0d"
         id="path621" /></g></g></svg>
