<?xml version="1.0" encoding="UTF-8" standalone="no"?>
<svg width="189.089mm" height="265.289mm"
 viewBox="0 0 536 752"
 xmlns="http://www.w3.org/2000/svg" xmlns:xlink="http://www.w3.org/1999/xlink"  version="1.2" baseProfile="tiny">
<title>Qt SVG Document</title>
<desc>Generated with Qt</desc>
<defs>
<linearGradient gradientUnits="userSpaceOnUse" x1="-508.61" y1="-704.827" x2="-508.61" y2="850" id="gradient1">
    <stop offset="0" stop-color="#66d9ef" stop-opacity="1" />
    <stop offset="1" stop-color="#272822" stop-opacity="1" />
</linearGradient>
</defs>
<g fill="none" stroke="black" stroke-width="1" fill-rule="evenodd" stroke-linecap="square" stroke-linejoin="bevel" >

<g fill="none" stroke="#000000" stroke-opacity="1" stroke-width="1" stroke-linecap="square" stroke-linejoin="bevel" transform="matrix(1,0,0,1,0,0)"
font-family="Cantarell" font-size="11" font-weight="400" font-style="normal" 
>
</g>

<g fill="none" stroke="#000000" stroke-opacity="1" stroke-width="1" stroke-linecap="square" stroke-linejoin="bevel" transform="matrix(0.358095,0,0,0.358095,264.99,376)"
font-family="Cantarell" font-size="11" font-weight="400" font-style="normal" 
>
</g>

<g fill="none" stroke="#000000" stroke-opacity="1" stroke-width="1" stroke-linecap="square" stroke-linejoin="bevel" transform="matrix(0.358095,0,0,0.358095,264.99,376)"
font-family="Cantarell" font-size="11" font-weight="400" font-style="normal" 
>
</g>

<g fill="none" stroke="#000000" stroke-opacity="1" stroke-width="1" stroke-linecap="square" stroke-linejoin="bevel" transform="matrix(0.358095,0,0,0.358095,264.99,376)"
font-family="Cantarell" font-size="11" font-weight="400" font-style="normal" 
>
</g>

<g fill="none" stroke="#000000" stroke-opacity="1" stroke-width="1" stroke-linecap="square" stroke-linejoin="bevel" transform="matrix(0.358095,0,0,0.358095,264.99,376)"
font-family="Cantarell" font-size="11" font-weight="400" font-style="normal" 
>
</g>

<g fill="#272822" fill-opacity="1" stroke="none" transform="matrix(0.358095,0,0,0.358095,264.99,376)"
font-family="Cantarell" font-size="11" font-weight="400" font-style="normal" 
>
<rect x="-690" y="-1000" width="1380" height="2000"/>
</g>

<g fill="none" stroke="#a2a39c" stroke-opacity="1" stroke-width="3.52778" stroke-linecap="square" stroke-linejoin="bevel" transform="matrix(0.358095,0,0,0.358095,264.99,376)"
font-family="Cantarell" font-size="11" font-weight="400" font-style="normal" 
>
<polyline fill="none" vector-effect="none" points="-690,-1000 -690,1000 " />
<polyline fill="none" vector-effect="none" points="-690,-1000 690,-1000 " />
<polyline fill="none" vector-effect="none" points="690,-1000 690,1000 " />
<polyline fill="none" vector-effect="none" points="690,1000 -690,1000 " />
</g>

<g fill="none" stroke="#000000" stroke-opacity="1" stroke-width="1" stroke-linecap="square" stroke-linejoin="bevel" transform="matrix(0.358095,0,0,0.358095,264.99,376)"
font-family="Cantarell" font-size="11" font-weight="400" font-style="normal" 
>
</g>

<g fill="none" stroke="#000000" stroke-opacity="1" stroke-width="1" stroke-linecap="square" stroke-linejoin="bevel" transform="matrix(0.358095,0,0,0.358095,264.99,376)"
font-family="Cantarell" font-size="11" font-weight="400" font-style="normal" 
>
</g>

<g fill="none" stroke="#000000" stroke-opacity="1" stroke-width="1" stroke-linecap="square" stroke-linejoin="bevel" transform="matrix(0.358095,0,0,0.358095,264.99,17.9048)"
font-family="Cantarell" font-size="11" font-weight="400" font-style="normal" 
>
</g>

<g fill="none" stroke="#000000" stroke-opacity="1" stroke-width="1" stroke-linecap="square" stroke-linejoin="bevel" transform="matrix(0.358095,0,0,0.358095,264.99,17.9048)"
font-family="Cantarell" font-size="11" font-weight="400" font-style="normal" 
>
</g>

<g fill="none" stroke="#000000" stroke-opacity="1" stroke-width="1" stroke-linecap="square" stroke-linejoin="bevel" transform="matrix(0.358095,0,0,0.358095,264.99,17.9048)"
font-family="Cantarell" font-size="11" font-weight="400" font-style="normal" 
>
</g>

<g fill="none" stroke="#000000" stroke-opacity="1" stroke-width="1" stroke-linecap="square" stroke-linejoin="bevel" transform="matrix(1.26328,0,0,1.26328,259.937,0.850476)"
font-family="Cantarell" font-size="11" font-weight="400" font-style="normal" 
>
</g>

<g fill="none" stroke="#000000" stroke-opacity="1" stroke-width="1" stroke-linecap="square" stroke-linejoin="bevel" transform="matrix(1.26328,0,0,1.26328,259.937,0.850476)"
font-family="Cantarell" font-size="11" font-weight="400" font-style="normal" 
>
</g>

<g fill="none" stroke="#000000" stroke-opacity="1" stroke-width="1" stroke-linecap="square" stroke-linejoin="bevel" transform="matrix(1.26328,0,0,1.26328,259.937,0.850476)"
font-family="Cantarell" font-size="11" font-weight="400" font-style="normal" 
>
</g>

<g fill="none" stroke="#000000" stroke-opacity="1" stroke-width="1" stroke-linecap="square" stroke-linejoin="bevel" transform="matrix(1.26328,0,0,1.26328,259.937,0.850476)"
font-family="Cantarell" font-size="11" font-weight="400" font-style="normal" 
>
</g>

<g fill="none" stroke="#000000" stroke-opacity="1" stroke-width="1" stroke-linecap="square" stroke-linejoin="bevel" transform="matrix(1,0,0,1,0,0)"
font-family="Cantarell" font-size="11" font-weight="400" font-style="normal" 
>
</g>

<g fill="none" stroke="#000000" stroke-opacity="1" stroke-width="1" stroke-linecap="square" stroke-linejoin="bevel" transform="matrix(0.358095,0,0,0.358095,264.99,376)"
font-family="Cantarell" font-size="11" font-weight="400" font-style="normal" 
>
</g>

<g fill="none" stroke="#000000" stroke-opacity="1" stroke-width="1" stroke-linecap="square" stroke-linejoin="bevel" transform="matrix(0.358095,0,0,0.358095,264.99,376)"
font-family="Cantarell" font-size="11" font-weight="400" font-style="normal" 
>
</g>

<g fill="none" stroke="#000000" stroke-opacity="1" stroke-width="1" stroke-linecap="square" stroke-linejoin="bevel" transform="matrix(1.26328,0,0,1.26328,259.937,0.850476)"
font-family="Cantarell" font-size="11" font-weight="400" font-style="normal" 
>
</g>

<g fill="none" stroke="#000000" stroke-opacity="1" stroke-width="1" stroke-linecap="square" stroke-linejoin="bevel" transform="matrix(1.26328,0,0,1.26328,259.937,0.850476)"
font-family="Cantarell" font-size="11" font-weight="400" font-style="normal" 
>
</g>

<g fill="none" stroke="#000000" stroke-opacity="1" stroke-width="1" stroke-linecap="square" stroke-linejoin="bevel" transform="matrix(0.358095,0,0,0.358095,264.99,17.9048)"
font-family="Cantarell" font-size="11" font-weight="400" font-style="normal" 
>
</g>

<g fill="none" stroke="#000000" stroke-opacity="1" stroke-width="1" stroke-linecap="square" stroke-linejoin="bevel" transform="matrix(0.358095,0,0,0.358095,264.99,17.9048)"
font-family="Cantarell" font-size="11" font-weight="400" font-style="normal" 
>
</g>

<g fill="none" stroke="#000000" stroke-opacity="1" stroke-width="1" stroke-linecap="square" stroke-linejoin="bevel" transform="matrix(1,0,0,1,0,0)"
font-family="Cantarell" font-size="11" font-weight="400" font-style="normal" 
>
</g>

<g fill="none" stroke="#000000" stroke-opacity="1" stroke-width="1" stroke-linecap="square" stroke-linejoin="bevel" transform="matrix(0.358095,0,0,0.358095,264.99,376)"
font-family="Cantarell" font-size="11" font-weight="400" font-style="normal" 
>
</g>

<g fill="none" stroke="#000000" stroke-opacity="1" stroke-width="1" stroke-linecap="square" stroke-linejoin="bevel" transform="matrix(0.358095,0,0,0.358095,264.99,376)"
font-family="Cantarell" font-size="11" font-weight="400" font-style="normal" 
>
</g>

<g fill="none" stroke="#000000" stroke-opacity="1" stroke-width="1" stroke-linecap="square" stroke-linejoin="bevel" transform="matrix(0.358095,0,0,0.358095,264.99,376)"
font-family="Cantarell" font-size="11" font-weight="400" font-style="normal" 
>
</g>

<g fill="none" stroke="#a2a39c" stroke-opacity="1" stroke-width="1.76389" stroke-linecap="square" stroke-linejoin="bevel" transform="matrix(0.358095,0,0,0.358095,264.99,376)"
font-family="Cantarell" font-size="11" font-weight="400" font-style="normal" 
opacity="0.5" >
<path vector-effect="none" fill-rule="evenodd" d="M-299.14,850 L-299.14,-850 M-89.355,850 L-89.355,-850 M120.43,850 L120.43,-850 M330.215,850 L330.215,-850"/>
</g>

<g fill="none" stroke="#a0a0a0" stroke-opacity="1" stroke-dasharray="1.76389,3.52778" stroke-dashoffset="0" stroke-width="1.76389" stroke-linecap="square" stroke-linejoin="bevel" transform="matrix(0.358095,0,0,0.358095,264.99,376)"
font-family="Cantarell" font-size="11" font-weight="400" font-style="normal" 
opacity="0.5" >
<path vector-effect="none" fill-rule="evenodd" d="M-404.032,850 L-404.032,-850 M-194.247,850 L-194.247,-850 M15.5375,850 L15.5375,-850 M225.323,850 L225.323,-850 M435.108,850 L435.108,-850"/>
</g>

<g fill="none" stroke="#000000" stroke-opacity="1" stroke-width="1" stroke-linecap="square" stroke-linejoin="bevel" transform="matrix(0.358095,0,0,0.358095,264.99,376)"
font-family="Cantarell" font-size="11" font-weight="400" font-style="normal" 
>
</g>

<g fill="none" stroke="#000000" stroke-opacity="1" stroke-width="1" stroke-linecap="square" stroke-linejoin="bevel" transform="matrix(0.358095,0,0,0.358095,264.99,376)"
font-family="Cantarell" font-size="11" font-weight="400" font-style="normal" 
>
</g>

<g fill="none" stroke="#000000" stroke-opacity="1" stroke-width="1" stroke-linecap="square" stroke-linejoin="bevel" transform="matrix(0.358095,0,0,0.358095,264.99,376)"
font-family="Cantarell" font-size="11" font-weight="400" font-style="normal" 
>
</g>

<g fill="none" stroke="#000000" stroke-opacity="1" stroke-width="1" stroke-linecap="square" stroke-linejoin="bevel" transform="matrix(0.358095,0,0,0.358095,264.99,376)"
font-family="Cantarell" font-size="11" font-weight="400" font-style="normal" 
>
</g>

<g fill="none" stroke="#a2a39c" stroke-opacity="1" stroke-width="1.76389" stroke-linecap="square" stroke-linejoin="bevel" transform="matrix(0.358095,0,0,0.358095,264.99,376)"
font-family="Cantarell" font-size="11" font-weight="400" font-style="normal" 
opacity="0.5" >
<path vector-effect="none" fill-rule="evenodd" d="M-508.925,607.143 L540,607.143 M-508.925,364.286 L540,364.286 M-508.925,121.429 L540,121.429 M-508.925,-121.429 L540,-121.429 M-508.925,-364.286 L540,-364.286 M-508.925,-607.143 L540,-607.143"/>
</g>

<g fill="none" stroke="#a0a0a0" stroke-opacity="1" stroke-dasharray="1.76389,3.52778" stroke-dashoffset="0" stroke-width="1.76389" stroke-linecap="square" stroke-linejoin="bevel" transform="matrix(0.358095,0,0,0.358095,264.99,376)"
font-family="Cantarell" font-size="11" font-weight="400" font-style="normal" 
opacity="0.5" >
<path vector-effect="none" fill-rule="evenodd" d="M-508.925,728.571 L540,728.571 M-508.925,485.714 L540,485.714 M-508.925,242.857 L540,242.857 M-508.925,0 L540,0 M-508.925,-242.857 L540,-242.857 M-508.925,-485.714 L540,-485.714 M-508.925,-728.571 L540,-728.571"/>
</g>

<g fill="none" stroke="#000000" stroke-opacity="1" stroke-width="1" stroke-linecap="square" stroke-linejoin="bevel" transform="matrix(0.358095,0,0,0.358095,264.99,376)"
font-family="Cantarell" font-size="11" font-weight="400" font-style="normal" 
>
</g>

<g fill="none" stroke="#000000" stroke-opacity="1" stroke-width="1" stroke-linecap="square" stroke-linejoin="bevel" transform="matrix(0.358095,0,0,0.358095,264.99,376)"
font-family="Cantarell" font-size="11" font-weight="400" font-style="normal" 
>
</g>

<g fill="none" stroke="#000000" stroke-opacity="1" stroke-width="1" stroke-linecap="square" stroke-linejoin="bevel" transform="matrix(0.358095,0,0,0.358095,264.99,376)"
font-family="Cantarell" font-size="11" font-weight="400" font-style="normal" 
>
</g>

<g fill="none" stroke="#000000" stroke-opacity="1" stroke-width="1" stroke-linecap="square" stroke-linejoin="bevel" transform="matrix(0.358095,0,0,0.358095,264.99,376)"
font-family="Cantarell" font-size="11" font-weight="400" font-style="normal" 
>
</g>

<g fill="url(#gradient1)" stroke="#000000" stroke-opacity="1" stroke-width="1" stroke-linecap="square" stroke-linejoin="bevel" transform="matrix(0.358095,0,0,0.358095,264.99,376)"
font-family="Cantarell" font-size="11" font-weight="400" font-style="normal" 
opacity="0.4" >
<path vector-effect="none" fill-rule="evenodd" d="M-508.61,-655.967 L-507.567,-657.263 L-506.525,-658.543 L-505.482,-659.807 L-504.439,-661.053 L-503.396,-662.283 L-502.353,-663.496 L-501.31,-664.692 L-500.268,-665.872 L-499.225,-667.034 L-498.182,-668.179 L-497.139,-669.308 L-496.096,-670.419 L-495.053,-671.514 L-494.011,-672.591 L-492.968,-673.651 L-491.925,-674.694 L-490.882,-675.719 L-489.839,-676.728 L-488.796,-677.719 L-487.754,-678.693 L-486.711,-679.649 L-485.668,-680.588 L-484.625,-681.51 L-483.582,-682.414 L-482.539,-683.301 L-481.497,-684.17 L-480.454,-685.021 L-479.411,-685.855 L-478.368,-686.672 L-477.325,-687.47 L-476.282,-688.251 L-475.24,-689.015 L-474.197,-689.76 L-473.154,-690.488 L-472.111,-691.198 L-471.068,-691.891 L-470.025,-692.565 L-468.983,-693.222 L-467.94,-693.861 L-466.897,-694.482 L-465.854,-695.085 L-464.811,-695.67 L-463.768,-696.237 L-462.726,-696.786 L-461.683,-697.317 L-460.64,-697.83 L-459.597,-698.325 L-458.554,-698.802 L-457.511,-699.261 L-456.469,-699.702 L-455.426,-700.125 L-454.383,-700.529 L-453.34,-700.916 L-452.297,-701.284 L-451.254,-701.635 L-450.212,-701.967 L-449.169,-702.281 L-448.126,-702.576 L-447.083,-702.854 L-446.04,-703.113 L-444.997,-703.354 L-443.955,-703.577 L-442.912,-703.782 L-441.869,-703.968 L-440.826,-704.136 L-439.783,-704.286 L-438.74,-704.418 L-437.698,-704.531 L-436.655,-704.626 L-435.612,-704.703 L-434.569,-704.761 L-433.526,-704.802 L-432.483,-704.824 L-431.441,-704.827 L-430.398,-704.813 L-429.355,-704.78 L-428.312,-704.729 L-427.269,-704.659 L-426.226,-704.572 L-425.184,-704.466 L-424.141,-704.342 L-423.098,-704.199 L-422.055,-704.038 L-421.012,-703.859 L-419.969,-703.662 L-418.927,-703.447 L-417.884,-703.213 L-416.841,-702.961 L-415.798,-702.691 L-414.755,-702.403 L-413.712,-702.096 L-412.669,-701.772 L-411.627,-701.429 L-410.584,-701.068 L-409.541,-700.688 L-408.498,-700.291 L-407.455,-699.876 L-406.412,-699.442 L-405.37,-698.991 L-404.327,-698.521 L-403.284,-698.033 L-402.241,-697.527 L-401.198,-697.004 L-400.155,-696.462 L-399.113,-695.902 L-398.07,-695.324 L-397.027,-694.729 L-395.984,-694.115 L-394.941,-693.483 L-393.898,-692.834 L-392.856,-692.167 L-391.813,-691.482 L-390.77,-690.779 L-389.727,-690.058 L-388.684,-689.32 L-387.641,-688.563 L-386.599,-687.789 L-385.556,-686.998 L-384.513,-686.189 L-383.47,-685.362 L-382.427,-684.517 L-381.384,-683.655 L-380.342,-682.776 L-379.299,-681.879 L-378.256,-680.964 L-377.213,-680.032 L-376.17,-679.083 L-375.127,-678.116 L-374.085,-677.132 L-373.042,-676.131 L-371.999,-675.112 L-370.956,-674.076 L-369.913,-673.023 L-368.87,-671.953 L-367.828,-670.865 L-366.785,-669.761 L-365.742,-668.639 L-364.699,-667.501 L-363.656,-666.345 L-362.613,-665.173 L-361.571,-663.984 L-360.528,-662.777 L-359.485,-661.554 L-358.442,-660.315 L-357.399,-659.058 L-356.356,-657.785 L-355.314,-656.495 L-354.271,-655.189 L-353.228,-653.866 L-352.185,-652.526 L-351.142,-651.17 L-350.099,-649.798 L-349.057,-648.409 L-348.014,-647.004 L-346.971,-645.583 L-345.928,-644.146 L-344.885,-642.692 L-343.842,-641.222 L-342.8,-639.737 L-341.757,-638.235 L-340.714,-636.717 L-339.671,-635.183 L-338.628,-633.634 L-337.585,-632.068 L-336.543,-630.487 L-335.5,-628.89 L-334.457,-627.278 L-333.414,-625.65 L-332.371,-624.006 L-331.328,-622.347 L-330.286,-620.673 L-329.243,-618.983 L-328.2,-617.278 L-327.157,-615.557 L-326.114,-613.822 L-325.071,-612.071 L-324.029,-610.305 L-322.986,-608.524 L-321.943,-606.728 L-320.9,-604.918 L-319.857,-603.092 L-318.814,-601.252 L-317.771,-599.397 L-316.729,-597.527 L-315.686,-595.643 L-314.643,-593.744 L-313.6,-591.831 L-312.557,-589.904 L-311.514,-587.962 L-310.472,-586.006 L-309.429,-584.035 L-308.386,-582.051 L-307.343,-580.052 L-306.3,-578.039 L-305.257,-576.013 L-304.215,-573.973 L-303.172,-571.918 L-302.129,-569.851 L-301.086,-567.769 L-300.043,-565.674 L-299,-563.565 L-297.958,-561.443 L-296.915,-559.308 L-295.872,-557.159 L-294.829,-554.997 L-293.786,-552.822 L-292.743,-550.633 L-291.701,-548.432 L-290.658,-546.218 L-289.615,-543.99 L-288.572,-541.75 L-287.529,-539.498 L-286.486,-537.232 L-285.444,-534.954 L-284.401,-532.664 L-283.358,-530.361 L-282.315,-528.046 L-281.272,-525.718 L-280.229,-523.378 L-279.187,-521.026 L-278.144,-518.662 L-277.101,-516.286 L-276.058,-513.898 L-275.015,-511.499 L-273.972,-509.087 L-272.93,-506.664 L-271.887,-504.229 L-270.844,-501.783 L-269.801,-499.325 L-268.758,-496.856 L-267.715,-494.376 L-266.673,-491.884 L-265.63,-489.382 L-264.587,-486.868 L-263.544,-484.343 L-262.501,-481.807 L-261.458,-479.261 L-260.416,-476.704 L-259.373,-474.136 L-258.33,-471.558 L-257.287,-468.969 L-256.244,-466.37 L-255.201,-463.76 L-254.159,-461.14 L-253.116,-458.51 L-252.073,-455.87 L-251.03,-453.22 L-249.987,-450.56 L-248.944,-447.89 L-247.902,-445.211 L-246.859,-442.522 L-245.816,-439.823 L-244.773,-437.115 L-243.73,-434.397 L-242.687,-431.67 L-241.645,-428.934 L-240.602,-426.188 L-239.559,-423.434 L-238.516,-420.67 L-237.473,-417.898 L-236.43,-415.117 L-235.388,-412.327 L-234.345,-409.528 L-233.302,-406.721 L-232.259,-403.905 L-231.216,-401.081 L-230.173,-398.249 L-229.131,-395.408 L-228.088,-392.559 L-227.045,-389.703 L-226.002,-386.838 L-224.959,-383.965 L-223.916,-381.085 L-222.873,-378.196 L-221.831,-375.301 L-220.788,-372.397 L-219.745,-369.486 L-218.702,-366.568 L-217.659,-363.643 L-216.616,-360.71 L-215.574,-357.77 L-214.531,-354.824 L-213.488,-351.87 L-212.445,-348.909 L-211.402,-345.942 L-210.359,-342.968 L-209.317,-339.987 L-208.274,-337 L-207.231,-334.006 L-206.188,-331.007 L-205.145,-328 L-204.102,-324.988 L-203.06,-321.97 L-202.017,-318.945 L-200.974,-315.915 L-199.931,-312.879 L-198.888,-309.837 L-197.845,-306.79 L-196.803,-303.737 L-195.76,-300.678 L-194.717,-297.614 L-193.674,-294.545 L-192.631,-291.471 L-191.588,-288.391 L-190.546,-285.307 L-189.503,-282.217 L-188.46,-279.123 L-187.417,-276.024 L-186.374,-272.92 L-185.331,-269.811 L-184.289,-266.698 L-183.246,-263.581 L-182.203,-260.459 L-181.16,-257.333 L-180.117,-254.203 L-179.074,-251.069 L-178.032,-247.93 L-176.989,-244.788 L-175.946,-241.642 L-174.903,-238.492 L-173.86,-235.339 L-172.817,-232.182 L-171.775,-229.021 L-170.732,-225.857 L-169.689,-222.69 L-168.646,-219.519 L-167.603,-216.345 L-166.56,-213.169 L-165.518,-209.989 L-164.475,-206.806 L-163.432,-203.62 L-162.389,-200.432 L-161.346,-197.241 L-160.303,-194.047 L-159.261,-190.851 L-158.218,-187.653 L-157.175,-184.452 L-156.132,-181.249 L-155.089,-178.044 L-154.046,-174.837 L-153.004,-171.627 L-151.961,-168.416 L-150.918,-165.203 L-149.875,-161.988 L-148.832,-158.771 L-147.789,-155.553 L-146.747,-152.334 L-145.704,-149.113 L-144.661,-145.89 L-143.618,-142.667 L-142.575,-139.442 L-141.532,-136.216 L-140.49,-132.989 L-139.447,-129.761 L-138.404,-126.532 L-137.361,-123.302 L-136.318,-120.072 L-135.275,-116.84 L-134.233,-113.609 L-133.19,-110.377 L-132.147,-107.144 L-131.104,-103.911 L-130.061,-100.678 L-129.018,-97.4449 L-127.975,-94.2115 L-126.933,-90.978 L-125.89,-87.7447 L-124.847,-84.5114 L-123.804,-81.2783 L-122.761,-78.0456 L-121.718,-74.8131 L-120.676,-71.5811 L-119.633,-68.3496 L-118.59,-65.1187 L-117.547,-61.8884 L-116.504,-58.6588 L-115.461,-55.43 L-114.419,-52.2021 L-113.376,-48.9751 L-112.333,-45.7492 L-111.29,-42.5243 L-110.247,-39.3006 L-109.204,-36.0781 L-108.162,-32.8569 L-107.119,-29.6371 L-106.076,-26.4187 L-105.033,-23.2018 L-103.99,-19.9865 L-102.947,-16.7729 L-101.905,-13.5609 L-100.862,-10.3508 L-99.8189,-7.14252 L-98.7761,-3.93616 L-97.7333,-0.731795 L-96.6904,2.47051 L-95.6476,5.67069 L-94.6048,8.86867 L-93.5619,12.0644 L-92.5191,15.2578 L-91.4763,18.4488 L-90.4334,21.6373 L-89.3906,24.8233 L-88.3478,28.0067 L-87.3049,31.1875 L-86.2621,34.3656 L-85.2193,37.5408 L-84.1764,40.7132 L-83.1336,43.8827 L-82.0907,47.0493 L-81.0479,50.2128 L-80.0051,53.3732 L-78.9622,56.5304 L-77.9194,59.6844 L-76.8766,62.8351 L-75.8337,65.9825 L-74.7909,69.1265 L-73.7481,72.267 L-72.7052,75.404 L-71.6624,78.5374 L-70.6196,81.6672 L-69.5767,84.7933 L-68.5339,87.9156 L-67.4911,91.0341 L-66.4482,94.1487 L-65.4054,97.2594 L-64.3626,100.366 L-63.3197,103.469 L-62.2769,106.567 L-61.234,109.662 L-60.1912,112.752 L-59.1484,115.838 L-58.1055,118.919 L-57.0627,121.996 L-56.0199,125.069 L-54.977,128.138 L-53.9342,131.201 L-52.8914,134.26 L-51.8485,137.315 L-50.8057,140.365 L-49.7629,143.41 L-48.72,146.45 L-47.6772,149.486 L-46.6344,152.516 L-45.5915,155.542 L-44.5487,158.562 L-43.5058,161.578 L-42.463,164.588 L-41.4202,167.594 L-40.3773,170.594 L-39.3345,173.589 L-38.2917,176.578 L-37.2488,179.563 L-36.206,182.542 L-35.1632,185.515 L-34.1203,188.483 L-33.0775,191.446 L-32.0347,194.403 L-30.9918,197.354 L-29.949,200.3 L-28.9062,203.24 L-27.8633,206.174 L-26.8205,209.102 L-25.7777,212.025 L-24.7348,214.942 L-23.692,217.853 L-22.6491,220.758 L-21.6063,223.657 L-20.5635,226.549 L-19.5206,229.436 L-18.4778,232.317 L-17.435,235.192 L-16.3921,238.06 L-15.3493,240.922 L-14.3065,243.778 L-13.2636,246.628 L-12.2208,249.471 L-11.178,252.308 L-10.1351,255.139 L-9.09229,257.963 L-8.04945,260.78 L-7.00662,263.592 L-5.96378,266.396 L-4.92095,269.194 L-3.87811,271.985 L-2.83528,274.77 L-1.79244,277.548 L-0.749607,280.319 L0.293228,283.084 L1.33606,285.842 L2.3789,288.593 L3.42173,291.337 L4.46457,294.074 L5.5074,296.804 L6.55024,299.527 L7.59307,302.244 L8.63591,304.953 L9.67874,307.656 L10.7216,310.351 L11.7644,313.039 L12.8073,315.72 L13.8501,318.394 L14.8929,321.061 L15.9358,323.721 L16.9786,326.373 L18.0214,329.018 L19.0643,331.656 L20.1071,334.287 L21.1499,336.91 L22.1928,339.526 L23.2356,342.135 L24.2784,344.736 L25.3213,347.33 L26.3641,349.916 L27.4069,352.495 L28.4498,355.066 L29.4926,357.63 L30.5354,360.187 L31.5783,362.735 L32.6211,365.277 L33.664,367.81 L34.7068,370.336 L35.7496,372.855 L36.7925,375.366 L37.8353,377.869 L38.8781,380.364 L39.921,382.852 L40.9638,385.332 L42.0066,387.804 L43.0495,390.269 L44.0923,392.726 L45.1351,395.175 L46.178,397.616 L47.2208,400.049 L48.2636,402.475 L49.3065,404.893 L50.3493,407.303 L51.3922,409.705 L52.435,412.099 L53.4778,414.485 L54.5207,416.863 L55.5635,419.234 L56.6063,421.596 L57.6492,423.951 L58.692,426.297 L59.7348,428.636 L60.7777,430.966 L61.8205,433.289 L62.8633,435.604 L63.9062,437.91 L64.949,440.209 L65.9918,442.499 L67.0347,444.782 L68.0775,447.056 L69.1203,449.323 L70.1632,451.581 L71.206,453.831 L72.2489,456.073 L73.2917,458.308 L74.3345,460.534 L75.3774,462.751 L76.4202,464.961 L77.463,467.163 L78.5059,469.357 L79.5487,471.542 L80.5915,473.719 L81.6344,475.889 L82.6772,478.05 L83.72,480.203 L84.7629,482.347 L85.8057,484.484 L86.8485,486.613 L87.8914,488.733 L88.9342,490.845 L89.9771,492.949 L91.0199,495.045 L92.0627,497.133 L93.1056,499.212 L94.1484,501.284 L95.1912,503.347 L96.2341,505.402 L97.2769,507.449 L98.3197,509.488 L99.3626,511.519 L100.405,513.541 L101.448,515.556 L102.491,517.562 L103.534,519.56 L104.577,521.55 L105.62,523.532 L106.662,525.505 L107.705,527.471 L108.748,529.428 L109.791,531.377 L110.834,533.318 L111.877,535.251 L112.919,537.176 L113.962,539.093 L115.005,541.001 L116.048,542.902 L117.091,544.794 L118.134,546.679 L119.176,548.555 L120.219,550.423 L121.262,552.283 L122.305,554.135 L123.348,555.979 L124.391,557.815 L125.433,559.642 L126.476,561.462 L127.519,563.274 L128.562,565.078 L129.605,566.873 L130.648,568.661 L131.69,570.441 L132.733,572.212 L133.776,573.976 L134.819,575.732 L135.862,577.48 L136.905,579.219 L137.947,580.951 L138.99,582.675 L140.033,584.391 L141.076,586.099 L142.119,587.8 L143.162,589.492 L144.204,591.176 L145.247,592.853 L146.29,594.521 L147.333,596.182 L148.376,597.835 L149.419,599.481 L150.461,601.118 L151.504,602.748 L152.547,604.369 L153.59,605.983 L154.633,607.59 L155.676,609.188 L156.719,610.779 L157.761,612.362 L158.804,613.938 L159.847,615.505 L160.89,617.065 L161.933,618.618 L162.976,620.162 L164.018,621.7 L165.061,623.229 L166.104,624.751 L167.147,626.265 L168.19,627.772 L169.233,629.271 L170.275,630.763 L171.318,632.247 L172.361,633.724 L173.404,635.193 L174.447,636.654 L175.49,638.109 L176.532,639.555 L177.575,640.995 L178.618,642.427 L179.661,643.851 L180.704,645.268 L181.747,646.678 L182.789,648.081 L183.832,649.476 L184.875,650.864 L185.918,652.245 L186.961,653.618 L188.004,654.984 L189.046,656.343 L190.089,657.695 L191.132,659.039 L192.175,660.376 L193.218,661.706 L194.261,663.03 L195.303,664.345 L196.346,665.654 L197.389,666.956 L198.432,668.251 L199.475,669.538 L200.518,670.819 L201.56,672.093 L202.603,673.359 L203.646,674.619 L204.689,675.872 L205.732,677.118 L206.775,678.357 L207.817,679.589 L208.86,680.814 L209.903,682.032 L210.946,683.244 L211.989,684.449 L213.032,685.647 L214.074,686.838 L215.117,688.022 L216.16,689.2 L217.203,690.371 L218.246,691.536 L219.289,692.694 L220.331,693.845 L221.374,694.989 L222.417,696.127 L223.46,697.259 L224.503,698.384 L225.546,699.502 L226.588,700.614 L227.631,701.72 L228.674,702.819 L229.717,703.911 L230.76,704.997 L231.803,706.077 L232.845,707.15 L233.888,708.217 L234.931,709.278 L235.974,710.333 L237.017,711.381 L238.06,712.423 L239.102,713.459 L240.145,714.488 L241.188,715.511 L242.231,716.529 L243.274,717.54 L244.317,718.544 L245.359,719.543 L246.402,720.536 L247.445,721.523 L248.488,722.503 L249.531,723.478 L250.574,724.447 L251.616,725.41 L252.659,726.367 L253.702,727.317 L254.745,728.262 L255.788,729.202 L256.831,730.135 L257.874,731.063 L258.916,731.984 L259.959,732.9 L261.002,733.811 L262.045,734.715 L263.088,735.614 L264.131,736.507 L265.173,737.395 L266.216,738.276 L267.259,739.153 L268.302,740.023 L269.345,740.889 L270.388,741.748 L271.43,742.602 L272.473,743.451 L273.516,744.294 L274.559,745.132 L275.602,745.964 L276.645,746.791 L277.687,747.612 L278.73,748.429 L279.773,749.239 L280.816,750.045 L281.859,750.845 L282.902,751.64 L283.944,752.43 L284.987,753.215 L286.03,753.994 L287.073,754.768 L288.116,755.538 L289.159,756.302 L290.201,757.06 L291.244,757.814 L292.287,758.563 L293.33,759.307 L294.373,760.046 L295.416,760.78 L296.458,761.509 L297.501,762.233 L298.544,762.952 L299.587,763.666 L300.63,764.375 L301.673,765.08 L302.715,765.779 L303.758,766.474 L304.801,767.165 L305.844,767.85 L306.887,768.531 L307.93,769.207 L308.972,769.878 L310.015,770.545 L311.058,771.207 L312.101,771.864 L313.144,772.517 L314.187,773.166 L315.229,773.81 L316.272,774.449 L317.315,775.084 L318.358,775.714 L319.401,776.34 L320.444,776.962 L321.486,777.579 L322.529,778.191 L323.572,778.8 L324.615,779.404 L325.658,780.004 L326.701,780.599 L327.743,781.191 L328.786,781.778 L329.829,782.36 L330.872,782.939 L331.915,783.513 L332.958,784.084 L334,784.65 L335.043,785.212 L336.086,785.77 L337.129,786.324 L338.172,786.874 L339.215,787.42 L340.257,787.962 L341.3,788.5 L342.343,789.034 L343.386,789.564 L344.429,790.09 L345.472,790.612 L346.514,791.13 L347.557,791.645 L348.6,792.156 L349.643,792.663 L350.686,793.166 L351.729,793.665 L352.772,794.161 L353.814,794.653 L354.857,795.141 L355.9,795.626 L356.943,796.107 L357.986,796.584 L359.029,797.058 L360.071,797.528 L361.114,797.995 L362.157,798.458 L363.2,798.917 L364.243,799.373 L365.286,799.826 L366.328,800.275 L367.371,800.721 L368.414,801.163 L369.457,801.602 L370.5,802.037 L371.543,802.469 L372.585,802.898 L373.628,803.324 L374.671,803.746 L375.714,804.165 L376.757,804.58 L377.8,804.992 L378.842,805.402 L379.885,805.808 L380.928,806.21 L381.971,806.61 L383.014,807.006 L384.057,807.4 L385.099,807.79 L386.142,808.177 L387.185,808.561 L388.228,808.942 L389.271,809.32 L390.314,809.695 L391.356,810.067 L392.399,810.436 L393.442,810.802 L394.485,811.166 L395.528,811.526 L396.571,811.883 L397.613,812.238 L398.656,812.589 L399.699,812.938 L400.742,813.284 L401.785,813.627 L402.828,813.968 L403.87,814.305 L404.913,814.64 L405.956,814.972 L406.999,815.302 L408.042,815.628 L409.085,815.953 L410.127,816.274 L411.17,816.593 L412.213,816.909 L413.256,817.222 L414.299,817.533 L415.342,817.842 L416.384,818.147 L417.427,818.451 L418.47,818.752 L419.513,819.05 L420.556,819.346 L421.599,819.639 L422.641,819.93 L423.684,820.218 L424.727,820.504 L425.77,820.788 L426.813,821.069 L427.856,821.348 L428.898,821.624 L429.941,821.898 L430.984,822.17 L432.027,822.44 L433.07,822.707 L434.113,822.972 L435.155,823.235 L436.198,823.495 L437.241,823.753 L438.284,824.009 L439.327,824.263 L440.37,824.515 L441.412,824.764 L442.455,825.012 L443.498,825.257 L444.541,825.5 L445.584,825.741 L446.627,825.98 L447.67,826.216 L448.712,826.451 L449.755,826.684 L450.798,826.915 L451.841,827.143 L452.884,827.37 L453.927,827.595 L454.969,827.817 L456.012,828.038 L457.055,828.257 L458.098,828.474 L459.141,828.689 L460.184,828.902 L461.226,829.113 L462.269,829.322 L463.312,829.53 L464.355,829.736 L465.398,829.939 L466.441,830.141 L467.483,830.341 L468.526,830.54 L469.569,830.736 L470.612,830.931 L471.655,831.124 L472.698,831.316 L473.74,831.505 L474.783,831.693 L475.826,831.88 L476.869,832.064 L477.912,832.247 L478.955,832.428 L479.997,832.608 L481.04,832.786 L482.083,832.962 L483.126,833.137 L484.169,833.31 L485.212,833.482 L486.254,833.651 L487.297,833.82 L488.34,833.987 L489.383,834.152 L490.426,834.316 L491.469,834.478 L492.511,834.639 L493.554,834.798 L494.597,834.956 L495.64,835.112 L496.683,835.267 L497.726,835.421 L498.768,835.573 L499.811,835.724 L500.854,835.873 L501.897,836.021 L502.94,836.167 L503.983,836.312 L505.025,836.456 L506.068,836.598 L507.111,836.739 L508.154,836.879 L509.197,837.017 L510.24,837.154 L511.282,837.29 L512.325,837.425 L513.368,837.558 L514.411,837.69 L515.454,837.82 L516.497,837.95 L517.539,838.078 L518.582,838.205 L519.625,838.331 L520.668,838.455 L521.711,838.579 L522.754,838.701 L523.796,838.822 L524.839,838.942 L525.882,839.06 L526.925,839.178 L527.968,839.294 L529.011,839.409 L530.053,839.524 L531.096,839.637 L532.139,839.749 L533.182,839.859 L533.182,850 L-508.61,850 L-508.61,-655.967"/>
</g>

<g fill="none" stroke="#66d9ef" stroke-opacity="1" stroke-width="3.52778" stroke-linecap="square" stroke-linejoin="bevel" transform="matrix(0.358095,0,0,0.358095,264.99,376)"
font-family="Cantarell" font-size="11" font-weight="400" font-style="normal" 
>
<path vector-effect="none" fill-rule="evenodd" d="M-508.61,-655.967 L-507.567,-657.263 L-506.525,-658.543 L-505.482,-659.807 L-504.439,-661.053 L-503.396,-662.283 L-502.353,-663.496 L-501.31,-664.692 L-500.268,-665.872 L-499.225,-667.034 L-498.182,-668.179 L-497.139,-669.308 L-496.096,-670.419 L-495.053,-671.514 L-494.011,-672.591 L-492.968,-673.651 L-491.925,-674.694 L-490.882,-675.719 L-489.839,-676.728 L-488.796,-677.719 L-487.754,-678.693 L-486.711,-679.649 L-485.668,-680.588 L-484.625,-681.51 L-483.582,-682.414 L-482.539,-683.301 L-481.497,-684.17 L-480.454,-685.021 L-479.411,-685.855 L-478.368,-686.672 L-477.325,-687.47 L-476.282,-688.251 L-475.24,-689.015 L-474.197,-689.76 L-473.154,-690.488 L-472.111,-691.198 L-471.068,-691.891 L-470.025,-692.565 L-468.983,-693.222 L-467.94,-693.861 L-466.897,-694.482 L-465.854,-695.085 L-464.811,-695.67 L-463.768,-696.237 L-462.726,-696.786 L-461.683,-697.317 L-460.64,-697.83 L-459.597,-698.325 L-458.554,-698.802 L-457.511,-699.261 L-456.469,-699.702 L-455.426,-700.125 L-454.383,-700.529 L-453.34,-700.916 L-452.297,-701.284 L-451.254,-701.635 L-450.212,-701.967 L-449.169,-702.281 L-448.126,-702.576 L-447.083,-702.854 L-446.04,-703.113 L-444.997,-703.354 L-443.955,-703.577 L-442.912,-703.782 L-441.869,-703.968 L-440.826,-704.136 L-439.783,-704.286 L-438.74,-704.418 L-437.698,-704.531 L-436.655,-704.626 L-435.612,-704.703 L-434.569,-704.761 L-433.526,-704.802 L-432.483,-704.824 L-431.441,-704.827 L-430.398,-704.813 L-429.355,-704.78 L-428.312,-704.729 L-427.269,-704.659 L-426.226,-704.572 L-425.184,-704.466 L-424.141,-704.342 L-423.098,-704.199 L-422.055,-704.038 L-421.012,-703.859 L-419.969,-703.662 L-418.927,-703.447 L-417.884,-703.213 L-416.841,-702.961 L-415.798,-702.691 L-414.755,-702.403 L-413.712,-702.096 L-412.669,-701.772 L-411.627,-701.429 L-410.584,-701.068 L-409.541,-700.688 L-408.498,-700.291 L-407.455,-699.876 L-406.412,-699.442 L-405.37,-698.991 L-404.327,-698.521 L-403.284,-698.033 L-402.241,-697.527 L-401.198,-697.004 L-400.155,-696.462 L-399.113,-695.902 L-398.07,-695.324 L-397.027,-694.729 L-395.984,-694.115 L-394.941,-693.483 L-393.898,-692.834 L-392.856,-692.167 L-391.813,-691.482 L-390.77,-690.779 L-389.727,-690.058 L-388.684,-689.32 L-387.641,-688.563 L-386.599,-687.789 L-385.556,-686.998 L-384.513,-686.189 L-383.47,-685.362 L-382.427,-684.517 L-381.384,-683.655 L-380.342,-682.776 L-379.299,-681.879 L-378.256,-680.964 L-377.213,-680.032 L-376.17,-679.083 L-375.127,-678.116 L-374.085,-677.132 L-373.042,-676.131 L-371.999,-675.112 L-370.956,-674.076 L-369.913,-673.023 L-368.87,-671.953 L-367.828,-670.865 L-366.785,-669.761 L-365.742,-668.639 L-364.699,-667.501 L-363.656,-666.345 L-362.613,-665.173 L-361.571,-663.984 L-360.528,-662.777 L-359.485,-661.554 L-358.442,-660.315 L-357.399,-659.058 L-356.356,-657.785 L-355.314,-656.495 L-354.271,-655.189 L-353.228,-653.866 L-352.185,-652.526 L-351.142,-651.17 L-350.099,-649.798 L-349.057,-648.409 L-348.014,-647.004 L-346.971,-645.583 L-345.928,-644.146 L-344.885,-642.692 L-343.842,-641.222 L-342.8,-639.737 L-341.757,-638.235 L-340.714,-636.717 L-339.671,-635.183 L-338.628,-633.634 L-337.585,-632.068 L-336.543,-630.487 L-335.5,-628.89 L-334.457,-627.278 L-333.414,-625.65 L-332.371,-624.006 L-331.328,-622.347 L-330.286,-620.673 L-329.243,-618.983 L-328.2,-617.278 L-327.157,-615.557 L-326.114,-613.822 L-325.071,-612.071 L-324.029,-610.305 L-322.986,-608.524 L-321.943,-606.728 L-320.9,-604.918 L-319.857,-603.092 L-318.814,-601.252 L-317.771,-599.397 L-316.729,-597.527 L-315.686,-595.643 L-314.643,-593.744 L-313.6,-591.831 L-312.557,-589.904 L-311.514,-587.962 L-310.472,-586.006 L-309.429,-584.035 L-308.386,-582.051 L-307.343,-580.052 L-306.3,-578.039 L-305.257,-576.013 L-304.215,-573.973 L-303.172,-571.918 L-302.129,-569.851 L-301.086,-567.769 L-300.043,-565.674 L-299,-563.565 L-297.958,-561.443 L-296.915,-559.308 L-295.872,-557.159 L-294.829,-554.997 L-293.786,-552.822 L-292.743,-550.633 L-291.701,-548.432 L-290.658,-546.218 L-289.615,-543.99 L-288.572,-541.75 L-287.529,-539.498 L-286.486,-537.232 L-285.444,-534.954 L-284.401,-532.664 L-283.358,-530.361 L-282.315,-528.046 L-281.272,-525.718 L-280.229,-523.378 L-279.187,-521.026 L-278.144,-518.662 L-277.101,-516.286 L-276.058,-513.898 L-275.015,-511.499 L-273.972,-509.087 L-272.93,-506.664 L-271.887,-504.229 L-270.844,-501.783 L-269.801,-499.325 L-268.758,-496.856 L-267.715,-494.376 L-266.673,-491.884 L-265.63,-489.382 L-264.587,-486.868 L-263.544,-484.343 L-262.501,-481.807 L-261.458,-479.261 L-260.416,-476.704 L-259.373,-474.136 L-258.33,-471.558 L-257.287,-468.969 L-256.244,-466.37 L-255.201,-463.76 L-254.159,-461.14 L-253.116,-458.51 L-252.073,-455.87 L-251.03,-453.22 L-249.987,-450.56 L-248.944,-447.89 L-247.902,-445.211 L-246.859,-442.522 L-245.816,-439.823 L-244.773,-437.115 L-243.73,-434.397 L-242.687,-431.67 L-241.645,-428.934 L-240.602,-426.188 L-239.559,-423.434 L-238.516,-420.67 L-237.473,-417.898 L-236.43,-415.117 L-235.388,-412.327 L-234.345,-409.528 L-233.302,-406.721 L-232.259,-403.905 L-231.216,-401.081 L-230.173,-398.249 L-229.131,-395.408 L-228.088,-392.559 L-227.045,-389.703 L-226.002,-386.838 L-224.959,-383.965 L-223.916,-381.085 L-222.873,-378.196 L-221.831,-375.301 L-220.788,-372.397 L-219.745,-369.486 L-218.702,-366.568 L-217.659,-363.643 L-216.616,-360.71 L-215.574,-357.77 L-214.531,-354.824 L-213.488,-351.87 L-212.445,-348.909 L-211.402,-345.942 L-210.359,-342.968 L-209.317,-339.987 L-208.274,-337 L-207.231,-334.006 L-206.188,-331.007 L-205.145,-328 L-204.102,-324.988 L-203.06,-321.97 L-202.017,-318.945 L-200.974,-315.915 L-199.931,-312.879 L-198.888,-309.837 L-197.845,-306.79 L-196.803,-303.737 L-195.76,-300.678 L-194.717,-297.614 L-193.674,-294.545 L-192.631,-291.471 L-191.588,-288.391 L-190.546,-285.307 L-189.503,-282.217 L-188.46,-279.123 L-187.417,-276.024 L-186.374,-272.92 L-185.331,-269.811 L-184.289,-266.698 L-183.246,-263.581 L-182.203,-260.459 L-181.16,-257.333 L-180.117,-254.203 L-179.074,-251.069 L-178.032,-247.93 L-176.989,-244.788 L-175.946,-241.642 L-174.903,-238.492 L-173.86,-235.339 L-172.817,-232.182 L-171.775,-229.021 L-170.732,-225.857 L-169.689,-222.69 L-168.646,-219.519 L-167.603,-216.345 L-166.56,-213.169 L-165.518,-209.989 L-164.475,-206.806 L-163.432,-203.62 L-162.389,-200.432 L-161.346,-197.241 L-160.303,-194.047 L-159.261,-190.851 L-158.218,-187.653 L-157.175,-184.452 L-156.132,-181.249 L-155.089,-178.044 L-154.046,-174.837 L-153.004,-171.627 L-151.961,-168.416 L-150.918,-165.203 L-149.875,-161.988 L-148.832,-158.771 L-147.789,-155.553 L-146.747,-152.334 L-145.704,-149.113 L-144.661,-145.89 L-143.618,-142.667 L-142.575,-139.442 L-141.532,-136.216 L-140.49,-132.989 L-139.447,-129.761 L-138.404,-126.532 L-137.361,-123.302 L-136.318,-120.072 L-135.275,-116.84 L-134.233,-113.609 L-133.19,-110.377 L-132.147,-107.144 L-131.104,-103.911 L-130.061,-100.678 L-129.018,-97.4449 L-127.975,-94.2115 L-126.933,-90.978 L-125.89,-87.7447 L-124.847,-84.5114 L-123.804,-81.2783 L-122.761,-78.0456 L-121.718,-74.8131 L-120.676,-71.5811 L-119.633,-68.3496 L-118.59,-65.1187 L-117.547,-61.8884 L-116.504,-58.6588 L-115.461,-55.43 L-114.419,-52.2021 L-113.376,-48.9751 L-112.333,-45.7492 L-111.29,-42.5243 L-110.247,-39.3006 L-109.204,-36.0781 L-108.162,-32.8569 L-107.119,-29.6371 L-106.076,-26.4187 L-105.033,-23.2018 L-103.99,-19.9865 L-102.947,-16.7729 L-101.905,-13.5609 L-100.862,-10.3508 L-99.8189,-7.14252 L-98.7761,-3.93616 L-97.7333,-0.731795 L-96.6904,2.47051 L-95.6476,5.67069 L-94.6048,8.86867 L-93.5619,12.0644 L-92.5191,15.2578 L-91.4763,18.4488 L-90.4334,21.6373 L-89.3906,24.8233 L-88.3478,28.0067 L-87.3049,31.1875 L-86.2621,34.3656 L-85.2193,37.5408 L-84.1764,40.7132 L-83.1336,43.8827 L-82.0907,47.0493 L-81.0479,50.2128 L-80.0051,53.3732 L-78.9622,56.5304 L-77.9194,59.6844 L-76.8766,62.8351 L-75.8337,65.9825 L-74.7909,69.1265 L-73.7481,72.267 L-72.7052,75.404 L-71.6624,78.5374 L-70.6196,81.6672 L-69.5767,84.7933 L-68.5339,87.9156 L-67.4911,91.0341 L-66.4482,94.1487 L-65.4054,97.2594 L-64.3626,100.366 L-63.3197,103.469 L-62.2769,106.567 L-61.234,109.662 L-60.1912,112.752 L-59.1484,115.838 L-58.1055,118.919 L-57.0627,121.996 L-56.0199,125.069 L-54.977,128.138 L-53.9342,131.201 L-52.8914,134.26 L-51.8485,137.315 L-50.8057,140.365 L-49.7629,143.41 L-48.72,146.45 L-47.6772,149.486 L-46.6344,152.516 L-45.5915,155.542 L-44.5487,158.562 L-43.5058,161.578 L-42.463,164.588 L-41.4202,167.594 L-40.3773,170.594 L-39.3345,173.589 L-38.2917,176.578 L-37.2488,179.563 L-36.206,182.542 L-35.1632,185.515 L-34.1203,188.483 L-33.0775,191.446 L-32.0347,194.403 L-30.9918,197.354 L-29.949,200.3 L-28.9062,203.24 L-27.8633,206.174 L-26.8205,209.102 L-25.7777,212.025 L-24.7348,214.942 L-23.692,217.853 L-22.6491,220.758 L-21.6063,223.657 L-20.5635,226.549 L-19.5206,229.436 L-18.4778,232.317 L-17.435,235.192 L-16.3921,238.06 L-15.3493,240.922 L-14.3065,243.778 L-13.2636,246.628 L-12.2208,249.471 L-11.178,252.308 L-10.1351,255.139 L-9.09229,257.963 L-8.04945,260.78 L-7.00662,263.592 L-5.96378,266.396 L-4.92095,269.194 L-3.87811,271.985 L-2.83528,274.77 L-1.79244,277.548 L-0.749607,280.319 L0.293228,283.084 L1.33606,285.842 L2.3789,288.593 L3.42173,291.337 L4.46457,294.074 L5.5074,296.804 L6.55024,299.527 L7.59307,302.244 L8.63591,304.953 L9.67874,307.656 L10.7216,310.351 L11.7644,313.039 L12.8073,315.72 L13.8501,318.394 L14.8929,321.061 L15.9358,323.721 L16.9786,326.373 L18.0214,329.018 L19.0643,331.656 L20.1071,334.287 L21.1499,336.91 L22.1928,339.526 L23.2356,342.135 L24.2784,344.736 L25.3213,347.33 L26.3641,349.916 L27.4069,352.495 L28.4498,355.066 L29.4926,357.63 L30.5354,360.187 L31.5783,362.735 L32.6211,365.277 L33.664,367.81 L34.7068,370.336 L35.7496,372.855 L36.7925,375.366 L37.8353,377.869 L38.8781,380.364 L39.921,382.852 L40.9638,385.332 L42.0066,387.804 L43.0495,390.269 L44.0923,392.726 L45.1351,395.175 L46.178,397.616 L47.2208,400.049 L48.2636,402.475 L49.3065,404.893 L50.3493,407.303 L51.3922,409.705 L52.435,412.099 L53.4778,414.485 L54.5207,416.863 L55.5635,419.234 L56.6063,421.596 L57.6492,423.951 L58.692,426.297 L59.7348,428.636 L60.7777,430.966 L61.8205,433.289 L62.8633,435.604 L63.9062,437.91 L64.949,440.209 L65.9918,442.499 L67.0347,444.782 L68.0775,447.056 L69.1203,449.323 L70.1632,451.581 L71.206,453.831 L72.2489,456.073 L73.2917,458.308 L74.3345,460.534 L75.3774,462.751 L76.4202,464.961 L77.463,467.163 L78.5059,469.357 L79.5487,471.542 L80.5915,473.719 L81.6344,475.889 L82.6772,478.05 L83.72,480.203 L84.7629,482.347 L85.8057,484.484 L86.8485,486.613 L87.8914,488.733 L88.9342,490.845 L89.9771,492.949 L91.0199,495.045 L92.0627,497.133 L93.1056,499.212 L94.1484,501.284 L95.1912,503.347 L96.2341,505.402 L97.2769,507.449 L98.3197,509.488 L99.3626,511.519 L100.405,513.541 L101.448,515.556 L102.491,517.562 L103.534,519.56 L104.577,521.55 L105.62,523.532 L106.662,525.505 L107.705,527.471 L108.748,529.428 L109.791,531.377 L110.834,533.318 L111.877,535.251 L112.919,537.176 L113.962,539.093 L115.005,541.001 L116.048,542.902 L117.091,544.794 L118.134,546.679 L119.176,548.555 L120.219,550.423 L121.262,552.283 L122.305,554.135 L123.348,555.979 L124.391,557.815 L125.433,559.642 L126.476,561.462 L127.519,563.274 L128.562,565.078 L129.605,566.873 L130.648,568.661 L131.69,570.441 L132.733,572.212 L133.776,573.976 L134.819,575.732 L135.862,577.48 L136.905,579.219 L137.947,580.951 L138.99,582.675 L140.033,584.391 L141.076,586.099 L142.119,587.8 L143.162,589.492 L144.204,591.176 L145.247,592.853 L146.29,594.521 L147.333,596.182 L148.376,597.835 L149.419,599.481 L150.461,601.118 L151.504,602.748 L152.547,604.369 L153.59,605.983 L154.633,607.59 L155.676,609.188 L156.719,610.779 L157.761,612.362 L158.804,613.938 L159.847,615.505 L160.89,617.065 L161.933,618.618 L162.976,620.162 L164.018,621.7 L165.061,623.229 L166.104,624.751 L167.147,626.265 L168.19,627.772 L169.233,629.271 L170.275,630.763 L171.318,632.247 L172.361,633.724 L173.404,635.193 L174.447,636.654 L175.49,638.109 L176.532,639.555 L177.575,640.995 L178.618,642.427 L179.661,643.851 L180.704,645.268 L181.747,646.678 L182.789,648.081 L183.832,649.476 L184.875,650.864 L185.918,652.245 L186.961,653.618 L188.004,654.984 L189.046,656.343 L190.089,657.695 L191.132,659.039 L192.175,660.376 L193.218,661.706 L194.261,663.03 L195.303,664.345 L196.346,665.654 L197.389,666.956 L198.432,668.251 L199.475,669.538 L200.518,670.819 L201.56,672.093 L202.603,673.359 L203.646,674.619 L204.689,675.872 L205.732,677.118 L206.775,678.357 L207.817,679.589 L208.86,680.814 L209.903,682.032 L210.946,683.244 L211.989,684.449 L213.032,685.647 L214.074,686.838 L215.117,688.022 L216.16,689.2 L217.203,690.371 L218.246,691.536 L219.289,692.694 L220.331,693.845 L221.374,694.989 L222.417,696.127 L223.46,697.259 L224.503,698.384 L225.546,699.502 L226.588,700.614 L227.631,701.72 L228.674,702.819 L229.717,703.911 L230.76,704.997 L231.803,706.077 L232.845,707.15 L233.888,708.217 L234.931,709.278 L235.974,710.333 L237.017,711.381 L238.06,712.423 L239.102,713.459 L240.145,714.488 L241.188,715.511 L242.231,716.529 L243.274,717.54 L244.317,718.544 L245.359,719.543 L246.402,720.536 L247.445,721.523 L248.488,722.503 L249.531,723.478 L250.574,724.447 L251.616,725.41 L252.659,726.367 L253.702,727.317 L254.745,728.262 L255.788,729.202 L256.831,730.135 L257.874,731.063 L258.916,731.984 L259.959,732.9 L261.002,733.811 L262.045,734.715 L263.088,735.614 L264.131,736.507 L265.173,737.395 L266.216,738.276 L267.259,739.153 L268.302,740.023 L269.345,740.889 L270.388,741.748 L271.43,742.602 L272.473,743.451 L273.516,744.294 L274.559,745.132 L275.602,745.964 L276.645,746.791 L277.687,747.612 L278.73,748.429 L279.773,749.239 L280.816,750.045 L281.859,750.845 L282.902,751.64 L283.944,752.43 L284.987,753.215 L286.03,753.994 L287.073,754.768 L288.116,755.538 L289.159,756.302 L290.201,757.06 L291.244,757.814 L292.287,758.563 L293.33,759.307 L294.373,760.046 L295.416,760.78 L296.458,761.509 L297.501,762.233 L298.544,762.952 L299.587,763.666 L300.63,764.375 L301.673,765.08 L302.715,765.779 L303.758,766.474 L304.801,767.165 L305.844,767.85 L306.887,768.531 L307.93,769.207 L308.972,769.878 L310.015,770.545 L311.058,771.207 L312.101,771.864 L313.144,772.517 L314.187,773.166 L315.229,773.81 L316.272,774.449 L317.315,775.084 L318.358,775.714 L319.401,776.34 L320.444,776.962 L321.486,777.579 L322.529,778.191 L323.572,778.8 L324.615,779.404 L325.658,780.004 L326.701,780.599 L327.743,781.191 L328.786,781.778 L329.829,782.36 L330.872,782.939 L331.915,783.513 L332.958,784.084 L334,784.65 L335.043,785.212 L336.086,785.77 L337.129,786.324 L338.172,786.874 L339.215,787.42 L340.257,787.962 L341.3,788.5 L342.343,789.034 L343.386,789.564 L344.429,790.09 L345.472,790.612 L346.514,791.13 L347.557,791.645 L348.6,792.156 L349.643,792.663 L350.686,793.166 L351.729,793.665 L352.772,794.161 L353.814,794.653 L354.857,795.141 L355.9,795.626 L356.943,796.107 L357.986,796.584 L359.029,797.058 L360.071,797.528 L361.114,797.995 L362.157,798.458 L363.2,798.917 L364.243,799.373 L365.286,799.826 L366.328,800.275 L367.371,800.721 L368.414,801.163 L369.457,801.602 L370.5,802.037 L371.543,802.469 L372.585,802.898 L373.628,803.324 L374.671,803.746 L375.714,804.165 L376.757,804.58 L377.8,804.992 L378.842,805.402 L379.885,805.808 L380.928,806.21 L381.971,806.61 L383.014,807.006 L384.057,807.4 L385.099,807.79 L386.142,808.177 L387.185,808.561 L388.228,808.942 L389.271,809.32 L390.314,809.695 L391.356,810.067 L392.399,810.436 L393.442,810.802 L394.485,811.166 L395.528,811.526 L396.571,811.883 L397.613,812.238 L398.656,812.589 L399.699,812.938 L400.742,813.284 L401.785,813.627 L402.828,813.968 L403.87,814.305 L404.913,814.64 L405.956,814.972 L406.999,815.302 L408.042,815.628 L409.085,815.953 L410.127,816.274 L411.17,816.593 L412.213,816.909 L413.256,817.222 L414.299,817.533 L415.342,817.842 L416.384,818.147 L417.427,818.451 L418.47,818.752 L419.513,819.05 L420.556,819.346 L421.599,819.639 L422.641,819.93 L423.684,820.218 L424.727,820.504 L425.77,820.788 L426.813,821.069 L427.856,821.348 L428.898,821.624 L429.941,821.898 L430.984,822.17 L432.027,822.44 L433.07,822.707 L434.113,822.972 L435.155,823.235 L436.198,823.495 L437.241,823.753 L438.284,824.009 L439.327,824.263 L440.37,824.515 L441.412,824.764 L442.455,825.012 L443.498,825.257 L444.541,825.5 L445.584,825.741 L446.627,825.98 L447.67,826.216 L448.712,826.451 L449.755,826.684 L450.798,826.915 L451.841,827.143 L452.884,827.37 L453.927,827.595 L454.969,827.817 L456.012,828.038 L457.055,828.257 L458.098,828.474 L459.141,828.689 L460.184,828.902 L461.226,829.113 L462.269,829.322 L463.312,829.53 L464.355,829.736 L465.398,829.939 L466.441,830.141 L467.483,830.341 L468.526,830.54 L469.569,830.736 L470.612,830.931 L471.655,831.124 L472.698,831.316 L473.74,831.505 L474.783,831.693 L475.826,831.88 L476.869,832.064 L477.912,832.247 L478.955,832.428 L479.997,832.608 L481.04,832.786 L482.083,832.962 L483.126,833.137 L484.169,833.31 L485.212,833.482 L486.254,833.651 L487.297,833.82 L488.34,833.987 L489.383,834.152 L490.426,834.316 L491.469,834.478 L492.511,834.639 L493.554,834.798 L494.597,834.956 L495.64,835.112 L496.683,835.267 L497.726,835.421 L498.768,835.573 L499.811,835.724 L500.854,835.873 L501.897,836.021 L502.94,836.167 L503.983,836.312 L505.025,836.456 L506.068,836.598 L507.111,836.739 L508.154,836.879 L509.197,837.017 L510.24,837.154 L511.282,837.29 L512.325,837.425 L513.368,837.558 L514.411,837.69 L515.454,837.82 L516.497,837.95 L517.539,838.078 L518.582,838.205 L519.625,838.331 L520.668,838.455 L521.711,838.579 L522.754,838.701 L523.796,838.822 L524.839,838.942 L525.882,839.06 L526.925,839.178 L527.968,839.294 L529.011,839.409 L530.053,839.524 L531.096,839.637 L532.139,839.749 L533.182,839.859"/>
</g>

<g fill="none" stroke="#000000" stroke-opacity="1" stroke-width="1" stroke-linecap="square" stroke-linejoin="bevel" transform="matrix(0.358095,0,0,0.358095,264.99,376)"
font-family="Cantarell" font-size="11" font-weight="400" font-style="normal" 
>
</g>

<g fill="none" stroke="#000000" stroke-opacity="1" stroke-width="1" stroke-linecap="square" stroke-linejoin="bevel" transform="matrix(0.358095,0,0,0.358095,264.99,376)"
font-family="Cantarell" font-size="11" font-weight="400" font-style="normal" 
>
</g>

<g fill="none" stroke="#000000" stroke-opacity="1" stroke-width="1" stroke-linecap="square" stroke-linejoin="bevel" transform="matrix(0.358095,0,0,0.358095,264.99,376)"
font-family="Cantarell" font-size="11" font-weight="400" font-style="normal" 
>
</g>

<g fill="none" stroke="#000000" stroke-opacity="1" stroke-width="1" stroke-linecap="square" stroke-linejoin="bevel" transform="matrix(0.358095,0,0,0.358095,264.99,376)"
font-family="Cantarell" font-size="11" font-weight="400" font-style="normal" 
>
</g>

<g fill="#000000" fill-opacity="1" stroke="#a2a39c" stroke-opacity="1" stroke-width="3.52778" stroke-linecap="square" stroke-linejoin="bevel" transform="matrix(0.358095,0,0,0.358095,264.99,376)"
font-family="Cantarell" font-size="11" font-weight="400" font-style="normal" 
>
<path vector-effect="none" fill-rule="evenodd" d="M-508.925,850 L540,850"/>
</g>

<g fill="none" stroke="#a2a39c" stroke-opacity="1" stroke-width="3.52778" stroke-linecap="square" stroke-linejoin="bevel" transform="matrix(0.358095,0,0,0.358095,264.99,376)"
font-family="Cantarell" font-size="11" font-weight="400" font-style="normal" 
>
<path vector-effect="none" fill-rule="evenodd" d="M-508.925,828.833 L-508.925,850 M-299.14,828.833 L-299.14,850 M-89.355,828.833 L-89.355,850 M120.43,828.833 L120.43,850 M330.215,828.833 L330.215,850 M540,828.833 L540,850"/>
<path vector-effect="none" fill-rule="evenodd" d="M-404.032,839.417 L-404.032,850 M-194.247,839.417 L-194.247,850 M15.5375,839.417 L15.5375,850 M225.323,839.417 L225.323,850 M435.108,839.417 L435.108,850"/>
</g>

<g fill="none" stroke="#a2a39c" stroke-opacity="1" stroke-width="1" stroke-linecap="square" stroke-linejoin="bevel" transform="matrix(0.358095,0,0,0.358095,76.1221,706.81)"
font-family="Cantarell" font-size="35" font-weight="400" font-style="normal" 
>
</g>

<g fill="none" stroke="#a2a39c" stroke-opacity="1" stroke-width="1" stroke-linecap="square" stroke-linejoin="bevel" transform="matrix(0.358095,0,0,0.358095,76.1221,706.81)"
font-family="Cantarell" font-size="35" font-weight="400" font-style="normal" 
>
<text fill="#a2a39c" fill-opacity="1" stroke="none" xml:space="preserve" x="0" y="0" font-family="Cantarell" font-size="35" font-weight="400" font-style="normal" 
 >20</text>
</g>

<g fill="none" stroke="#a2a39c" stroke-opacity="1" stroke-width="1" stroke-linecap="square" stroke-linejoin="bevel" transform="matrix(0.358095,0,0,0.358095,76.1221,706.81)"
font-family="Cantarell" font-size="35" font-weight="400" font-style="normal" 
>
</g>

<g fill="none" stroke="#a2a39c" stroke-opacity="1" stroke-width="1" stroke-linecap="square" stroke-linejoin="bevel" transform="matrix(0.358095,0,0,0.358095,150.529,706.81)"
font-family="Cantarell" font-size="35" font-weight="400" font-style="normal" 
>
</g>

<g fill="none" stroke="#a2a39c" stroke-opacity="1" stroke-width="1" stroke-linecap="square" stroke-linejoin="bevel" transform="matrix(0.358095,0,0,0.358095,150.529,706.81)"
font-family="Cantarell" font-size="35" font-weight="400" font-style="normal" 
>
<text fill="#a2a39c" fill-opacity="1" stroke="none" xml:space="preserve" x="0" y="0" font-family="Cantarell" font-size="35" font-weight="400" font-style="normal" 
 >40</text>
</g>

<g fill="none" stroke="#a2a39c" stroke-opacity="1" stroke-width="1" stroke-linecap="square" stroke-linejoin="bevel" transform="matrix(0.358095,0,0,0.358095,150.529,706.81)"
font-family="Cantarell" font-size="35" font-weight="400" font-style="normal" 
>
</g>

<g fill="none" stroke="#a2a39c" stroke-opacity="1" stroke-width="1" stroke-linecap="square" stroke-linejoin="bevel" transform="matrix(0.358095,0,0,0.358095,226.01,706.81)"
font-family="Cantarell" font-size="35" font-weight="400" font-style="normal" 
>
</g>

<g fill="none" stroke="#a2a39c" stroke-opacity="1" stroke-width="1" stroke-linecap="square" stroke-linejoin="bevel" transform="matrix(0.358095,0,0,0.358095,226.01,706.81)"
font-family="Cantarell" font-size="35" font-weight="400" font-style="normal" 
>
<text fill="#a2a39c" fill-opacity="1" stroke="none" xml:space="preserve" x="0" y="0" font-family="Cantarell" font-size="35" font-weight="400" font-style="normal" 
 >60</text>
</g>

<g fill="none" stroke="#a2a39c" stroke-opacity="1" stroke-width="1" stroke-linecap="square" stroke-linejoin="bevel" transform="matrix(0.358095,0,0,0.358095,226.01,706.81)"
font-family="Cantarell" font-size="35" font-weight="400" font-style="normal" 
>
</g>

<g fill="none" stroke="#a2a39c" stroke-opacity="1" stroke-width="1" stroke-linecap="square" stroke-linejoin="bevel" transform="matrix(0.358095,0,0,0.358095,301.133,706.81)"
font-family="Cantarell" font-size="35" font-weight="400" font-style="normal" 
>
</g>

<g fill="none" stroke="#a2a39c" stroke-opacity="1" stroke-width="1" stroke-linecap="square" stroke-linejoin="bevel" transform="matrix(0.358095,0,0,0.358095,301.133,706.81)"
font-family="Cantarell" font-size="35" font-weight="400" font-style="normal" 
>
<text fill="#a2a39c" fill-opacity="1" stroke="none" xml:space="preserve" x="0" y="0" font-family="Cantarell" font-size="35" font-weight="400" font-style="normal" 
 >80</text>
</g>

<g fill="none" stroke="#a2a39c" stroke-opacity="1" stroke-width="1" stroke-linecap="square" stroke-linejoin="bevel" transform="matrix(0.358095,0,0,0.358095,301.133,706.81)"
font-family="Cantarell" font-size="35" font-weight="400" font-style="normal" 
>
</g>

<g fill="none" stroke="#a2a39c" stroke-opacity="1" stroke-width="1" stroke-linecap="square" stroke-linejoin="bevel" transform="matrix(0.358095,0,0,0.358095,373.212,706.81)"
font-family="Cantarell" font-size="35" font-weight="400" font-style="normal" 
>
</g>

<g fill="none" stroke="#a2a39c" stroke-opacity="1" stroke-width="1" stroke-linecap="square" stroke-linejoin="bevel" transform="matrix(0.358095,0,0,0.358095,373.212,706.81)"
font-family="Cantarell" font-size="35" font-weight="400" font-style="normal" 
>
<text fill="#a2a39c" fill-opacity="1" stroke="none" xml:space="preserve" x="0" y="0" font-family="Cantarell" font-size="35" font-weight="400" font-style="normal" 
 >100</text>
</g>

<g fill="none" stroke="#a2a39c" stroke-opacity="1" stroke-width="1" stroke-linecap="square" stroke-linejoin="bevel" transform="matrix(0.358095,0,0,0.358095,373.212,706.81)"
font-family="Cantarell" font-size="35" font-weight="400" font-style="normal" 
>
</g>

<g fill="none" stroke="#a2a39c" stroke-opacity="1" stroke-width="1" stroke-linecap="square" stroke-linejoin="bevel" transform="matrix(0.358095,0,0,0.358095,448.872,706.81)"
font-family="Cantarell" font-size="35" font-weight="400" font-style="normal" 
>
</g>

<g fill="none" stroke="#a2a39c" stroke-opacity="1" stroke-width="1" stroke-linecap="square" stroke-linejoin="bevel" transform="matrix(0.358095,0,0,0.358095,448.872,706.81)"
font-family="Cantarell" font-size="35" font-weight="400" font-style="normal" 
>
<text fill="#a2a39c" fill-opacity="1" stroke="none" xml:space="preserve" x="0" y="0" font-family="Cantarell" font-size="35" font-weight="400" font-style="normal" 
 >120</text>
</g>

<g fill="none" stroke="#a2a39c" stroke-opacity="1" stroke-width="1" stroke-linecap="square" stroke-linejoin="bevel" transform="matrix(0.358095,0,0,0.358095,448.872,706.81)"
font-family="Cantarell" font-size="35" font-weight="400" font-style="normal" 
>
</g>

<g fill="none" stroke="#000000" stroke-opacity="1" stroke-width="1" stroke-linecap="square" stroke-linejoin="bevel" transform="matrix(0.358095,0,0,0.358095,264.99,376)"
font-family="Cantarell" font-size="11" font-weight="400" font-style="normal" 
>
</g>

<g fill="none" stroke="#000000" stroke-opacity="1" stroke-width="1" stroke-linecap="square" stroke-linejoin="bevel" transform="matrix(0.358095,0,0,0.358095,273.081,714.476)"
font-family="Cantarell" font-size="11" font-weight="400" font-style="normal" 
>
</g>

<g fill="none" stroke="#000000" stroke-opacity="1" stroke-width="1" stroke-linecap="square" stroke-linejoin="bevel" transform="matrix(0.358095,0,0,0.358095,273.081,714.476)"
font-family="Cantarell" font-size="11" font-weight="400" font-style="normal" 
>
</g>

<g fill="none" stroke="#000000" stroke-opacity="1" stroke-width="1" stroke-linecap="square" stroke-linejoin="bevel" transform="matrix(0.358095,0,0,0.358095,273.081,714.476)"
font-family="Cantarell" font-size="11" font-weight="400" font-style="normal" 
>
</g>

<g fill="none" stroke="#000000" stroke-opacity="1" stroke-width="1" stroke-linecap="square" stroke-linejoin="bevel" transform="matrix(0.358095,0,0,0.358095,273.081,714.476)"
font-family="Cantarell" font-size="11" font-weight="400" font-style="normal" 
>
</g>

<g fill="none" stroke="#000000" stroke-opacity="1" stroke-width="1" stroke-linecap="square" stroke-linejoin="bevel" transform="matrix(1.26328,0,0,1.26328,174.545,697.421)"
font-family="Cantarell" font-size="11" font-weight="400" font-style="normal" 
>
</g>

<g fill="none" stroke="#000000" stroke-opacity="1" stroke-width="1" stroke-linecap="square" stroke-linejoin="bevel" transform="matrix(1.26328,0,0,1.26328,174.545,697.421)"
font-family="Cantarell" font-size="11" font-weight="400" font-style="normal" 
>
</g>

<g fill="none" stroke="#000000" stroke-opacity="1" stroke-width="1" stroke-linecap="square" stroke-linejoin="bevel" transform="matrix(1.26328,0,0,1.26328,174.545,697.421)"
font-family="Cantarell" font-size="11" font-weight="400" font-style="normal" 
>
</g>

<g fill="#272822" fill-opacity="1" stroke="none" transform="matrix(1.26328,0,0,1.26328,174.545,697.421)"
font-family="Cantarell" font-size="11" font-weight="400" font-style="normal" 
>
<rect x="4" y="4" width="148" height="19"/>
</g>

<g fill="none" stroke="#a2a39c" stroke-opacity="1" stroke-width="1" stroke-linecap="square" stroke-linejoin="bevel" transform="matrix(1.26328,0,0,1.26328,174.545,697.421)"
font-family="Cantarell" font-size="11" font-weight="400" font-style="normal" 
>
<text fill="#a2a39c" fill-opacity="1" stroke="none" xml:space="preserve" x="4" y="19" font-family="Arial" font-size="12" font-weight="400" font-style="normal" 
 >&quot;^CE Diameter (m)&quot;</text>
</g>

<g fill="none" stroke="#000000" stroke-opacity="1" stroke-width="1" stroke-linecap="square" stroke-linejoin="bevel" transform="matrix(1.26328,0,0,1.26328,174.545,697.421)"
font-family="Cantarell" font-size="11" font-weight="400" font-style="normal" 
>
</g>

<g fill="none" stroke="#000000" stroke-opacity="1" stroke-width="1" stroke-linecap="square" stroke-linejoin="bevel" transform="matrix(1,0,0,1,0,0)"
font-family="Cantarell" font-size="11" font-weight="400" font-style="normal" 
>
</g>

<g fill="none" stroke="#000000" stroke-opacity="1" stroke-width="1" stroke-linecap="square" stroke-linejoin="bevel" transform="matrix(0.358095,0,0,0.358095,264.99,376)"
font-family="Cantarell" font-size="11" font-weight="400" font-style="normal" 
>
</g>

<g fill="none" stroke="#000000" stroke-opacity="1" stroke-width="1" stroke-linecap="square" stroke-linejoin="bevel" transform="matrix(1.26328,0,0,1.26328,174.545,697.421)"
font-family="Cantarell" font-size="11" font-weight="400" font-style="normal" 
>
</g>

<g fill="none" stroke="#000000" stroke-opacity="1" stroke-width="1" stroke-linecap="square" stroke-linejoin="bevel" transform="matrix(1.26328,0,0,1.26328,174.545,697.421)"
font-family="Cantarell" font-size="11" font-weight="400" font-style="normal" 
>
</g>

<g fill="none" stroke="#000000" stroke-opacity="1" stroke-width="1" stroke-linecap="square" stroke-linejoin="bevel" transform="matrix(0.358095,0,0,0.358095,273.081,714.476)"
font-family="Cantarell" font-size="11" font-weight="400" font-style="normal" 
>
</g>

<g fill="none" stroke="#000000" stroke-opacity="1" stroke-width="1" stroke-linecap="square" stroke-linejoin="bevel" transform="matrix(0.358095,0,0,0.358095,264.99,376)"
font-family="Cantarell" font-size="11" font-weight="400" font-style="normal" 
>
</g>

<g fill="#000000" fill-opacity="1" stroke="#a2a39c" stroke-opacity="1" stroke-width="3.52778" stroke-linecap="square" stroke-linejoin="bevel" transform="matrix(0.358095,0,0,0.358095,264.99,376)"
font-family="Cantarell" font-size="11" font-weight="400" font-style="normal" 
>
<path vector-effect="none" fill-rule="evenodd" d="M-508.925,-850 L540,-850"/>
</g>

<g fill="none" stroke="#a2a39c" stroke-opacity="1" stroke-width="3.52778" stroke-linecap="square" stroke-linejoin="bevel" transform="matrix(0.358095,0,0,0.358095,264.99,376)"
font-family="Cantarell" font-size="11" font-weight="400" font-style="normal" 
>
<path vector-effect="none" fill-rule="evenodd" d="M-508.925,-850 L-508.925,-828.833 M-299.14,-850 L-299.14,-828.833 M-89.355,-850 L-89.355,-828.833 M120.43,-850 L120.43,-828.833 M330.215,-850 L330.215,-828.833 M540,-850 L540,-828.833"/>
<path vector-effect="none" fill-rule="evenodd" d="M-404.032,-850 L-404.032,-839.417 M-194.247,-850 L-194.247,-839.417 M15.5375,-850 L15.5375,-839.417 M225.323,-850 L225.323,-839.417 M435.108,-850 L435.108,-839.417"/>
</g>

<g fill="none" stroke="#000000" stroke-opacity="1" stroke-width="1" stroke-linecap="square" stroke-linejoin="bevel" transform="matrix(0.358095,0,0,0.358095,264.99,376)"
font-family="Cantarell" font-size="11" font-weight="400" font-style="normal" 
>
</g>

<g fill="none" stroke="#000000" stroke-opacity="1" stroke-width="1" stroke-linecap="square" stroke-linejoin="bevel" transform="matrix(0.358095,0,0,0.358095,264.99,376)"
font-family="Cantarell" font-size="11" font-weight="400" font-style="normal" 
>
</g>

<g fill="none" stroke="#000000" stroke-opacity="1" stroke-width="1" stroke-linecap="square" stroke-linejoin="bevel" transform="matrix(0.358095,0,0,0.358095,264.99,376)"
font-family="Cantarell" font-size="11" font-weight="400" font-style="normal" 
>
</g>

<g fill="none" stroke="#000000" stroke-opacity="1" stroke-width="1" stroke-linecap="square" stroke-linejoin="bevel" transform="matrix(0.358095,0,0,0.358095,264.99,376)"
font-family="Cantarell" font-size="11" font-weight="400" font-style="normal" 
>
</g>

<g fill="none" stroke="#000000" stroke-opacity="1" stroke-width="1" stroke-linecap="square" stroke-linejoin="bevel" transform="matrix(1.26328,0,0,1.26328,259.937,358.946)"
font-family="Cantarell" font-size="11" font-weight="400" font-style="normal" 
>
</g>

<g fill="none" stroke="#000000" stroke-opacity="1" stroke-width="1" stroke-linecap="square" stroke-linejoin="bevel" transform="matrix(1.26328,0,0,1.26328,259.937,358.946)"
font-family="Cantarell" font-size="11" font-weight="400" font-style="normal" 
>
</g>

<g fill="none" stroke="#000000" stroke-opacity="1" stroke-width="1" stroke-linecap="square" stroke-linejoin="bevel" transform="matrix(1.26328,0,0,1.26328,259.937,358.946)"
font-family="Cantarell" font-size="11" font-weight="400" font-style="normal" 
>
</g>

<g fill="none" stroke="#000000" stroke-opacity="1" stroke-width="1" stroke-linecap="square" stroke-linejoin="bevel" transform="matrix(1.26328,0,0,1.26328,259.937,358.946)"
font-family="Cantarell" font-size="11" font-weight="400" font-style="normal" 
>
</g>

<g fill="none" stroke="#000000" stroke-opacity="1" stroke-width="1" stroke-linecap="square" stroke-linejoin="bevel" transform="matrix(1,0,0,1,0,0)"
font-family="Cantarell" font-size="11" font-weight="400" font-style="normal" 
>
</g>

<g fill="none" stroke="#000000" stroke-opacity="1" stroke-width="1" stroke-linecap="square" stroke-linejoin="bevel" transform="matrix(0.358095,0,0,0.358095,264.99,376)"
font-family="Cantarell" font-size="11" font-weight="400" font-style="normal" 
>
</g>

<g fill="none" stroke="#000000" stroke-opacity="1" stroke-width="1" stroke-linecap="square" stroke-linejoin="bevel" transform="matrix(1.26328,0,0,1.26328,259.937,358.946)"
font-family="Cantarell" font-size="11" font-weight="400" font-style="normal" 
>
</g>

<g fill="none" stroke="#000000" stroke-opacity="1" stroke-width="1" stroke-linecap="square" stroke-linejoin="bevel" transform="matrix(1.26328,0,0,1.26328,259.937,358.946)"
font-family="Cantarell" font-size="11" font-weight="400" font-style="normal" 
>
</g>

<g fill="none" stroke="#000000" stroke-opacity="1" stroke-width="1" stroke-linecap="square" stroke-linejoin="bevel" transform="matrix(0.358095,0,0,0.358095,264.99,376)"
font-family="Cantarell" font-size="11" font-weight="400" font-style="normal" 
>
</g>

<g fill="none" stroke="#000000" stroke-opacity="1" stroke-width="1" stroke-linecap="square" stroke-linejoin="bevel" transform="matrix(0.358095,0,0,0.358095,264.99,376)"
font-family="Cantarell" font-size="11" font-weight="400" font-style="normal" 
>
</g>

<g fill="#000000" fill-opacity="1" stroke="#a2a39c" stroke-opacity="1" stroke-width="3.52778" stroke-linecap="square" stroke-linejoin="bevel" transform="matrix(0.358095,0,0,0.358095,264.99,376)"
font-family="Cantarell" font-size="11" font-weight="400" font-style="normal" 
>
<path vector-effect="none" fill-rule="evenodd" d="M-508.925,850 L-508.925,-850"/>
</g>

<g fill="none" stroke="#a2a39c" stroke-opacity="1" stroke-width="3.52778" stroke-linecap="square" stroke-linejoin="bevel" transform="matrix(0.358095,0,0,0.358095,264.99,376)"
font-family="Cantarell" font-size="11" font-weight="400" font-style="normal" 
>
<path vector-effect="none" fill-rule="evenodd" d="M-487.758,850 L-508.925,850 M-487.758,607.143 L-508.925,607.143 M-487.758,364.286 L-508.925,364.286 M-487.758,121.429 L-508.925,121.429 M-487.758,-121.429 L-508.925,-121.429 M-487.758,-364.286 L-508.925,-364.286 M-487.758,-607.143 L-508.925,-607.143 M-487.758,-850 L-508.925,-850"/>
<path vector-effect="none" fill-rule="evenodd" d="M-498.342,728.571 L-508.925,728.571 M-498.342,485.714 L-508.925,485.714 M-498.342,242.857 L-508.925,242.857 M-498.342,0 L-508.925,0 M-498.342,-242.857 L-508.925,-242.857 M-498.342,-485.714 L-508.925,-485.714 M-498.342,-728.571 L-508.925,-728.571"/>
</g>

<g fill="none" stroke="#a2a39c" stroke-opacity="1" stroke-width="1" stroke-linecap="square" stroke-linejoin="bevel" transform="matrix(0.358095,0,0,0.358095,69.9847,686.648)"
font-family="Cantarell" font-size="35" font-weight="400" font-style="normal" 
>
</g>

<g fill="none" stroke="#a2a39c" stroke-opacity="1" stroke-width="1" stroke-linecap="square" stroke-linejoin="bevel" transform="matrix(0.358095,0,0,0.358095,69.9847,686.648)"
font-family="Cantarell" font-size="35" font-weight="400" font-style="normal" 
>
<text fill="#a2a39c" fill-opacity="1" stroke="none" xml:space="preserve" x="0" y="0" font-family="Cantarell" font-size="35" font-weight="400" font-style="normal" 
 >0</text>
</g>

<g fill="none" stroke="#a2a39c" stroke-opacity="1" stroke-width="1" stroke-linecap="square" stroke-linejoin="bevel" transform="matrix(0.358095,0,0,0.358095,69.9847,686.648)"
font-family="Cantarell" font-size="35" font-weight="400" font-style="normal" 
>
</g>

<g fill="none" stroke="#a2a39c" stroke-opacity="1" stroke-width="1" stroke-linecap="square" stroke-linejoin="bevel" transform="matrix(0.358095,0,0,0.358095,55.3028,599.682)"
font-family="Cantarell" font-size="35" font-weight="400" font-style="normal" 
>
</g>

<g fill="none" stroke="#a2a39c" stroke-opacity="1" stroke-width="1" stroke-linecap="square" stroke-linejoin="bevel" transform="matrix(0.358095,0,0,0.358095,55.3028,599.682)"
font-family="Cantarell" font-size="35" font-weight="400" font-style="normal" 
>
<text fill="#a2a39c" fill-opacity="1" stroke="none" xml:space="preserve" x="0" y="0" font-family="Cantarell" font-size="35" font-weight="400" font-style="normal" 
 >500</text>
</g>

<g fill="none" stroke="#a2a39c" stroke-opacity="1" stroke-width="1" stroke-linecap="square" stroke-linejoin="bevel" transform="matrix(0.358095,0,0,0.358095,55.3028,599.682)"
font-family="Cantarell" font-size="35" font-weight="400" font-style="normal" 
>
</g>

<g fill="none" stroke="#a2a39c" stroke-opacity="1" stroke-width="1" stroke-linecap="square" stroke-linejoin="bevel" transform="matrix(0.358095,0,0,0.358095,45.6343,512.716)"
font-family="Cantarell" font-size="35" font-weight="400" font-style="normal" 
>
</g>

<g fill="none" stroke="#a2a39c" stroke-opacity="1" stroke-width="1" stroke-linecap="square" stroke-linejoin="bevel" transform="matrix(0.358095,0,0,0.358095,45.6343,512.716)"
font-family="Cantarell" font-size="35" font-weight="400" font-style="normal" 
>
<text fill="#a2a39c" fill-opacity="1" stroke="none" xml:space="preserve" x="0" y="0" font-family="Cantarell" font-size="35" font-weight="400" font-style="normal" 
 >1,000</text>
</g>

<g fill="none" stroke="#a2a39c" stroke-opacity="1" stroke-width="1" stroke-linecap="square" stroke-linejoin="bevel" transform="matrix(0.358095,0,0,0.358095,45.6343,512.716)"
font-family="Cantarell" font-size="35" font-weight="400" font-style="normal" 
>
</g>

<g fill="none" stroke="#a2a39c" stroke-opacity="1" stroke-width="1" stroke-linecap="square" stroke-linejoin="bevel" transform="matrix(0.358095,0,0,0.358095,46.3505,425.75)"
font-family="Cantarell" font-size="35" font-weight="400" font-style="normal" 
>
</g>

<g fill="none" stroke="#a2a39c" stroke-opacity="1" stroke-width="1" stroke-linecap="square" stroke-linejoin="bevel" transform="matrix(0.358095,0,0,0.358095,46.3505,425.75)"
font-family="Cantarell" font-size="35" font-weight="400" font-style="normal" 
>
<text fill="#a2a39c" fill-opacity="1" stroke="none" xml:space="preserve" x="0" y="0" font-family="Cantarell" font-size="35" font-weight="400" font-style="normal" 
 >1,500</text>
</g>

<g fill="none" stroke="#a2a39c" stroke-opacity="1" stroke-width="1" stroke-linecap="square" stroke-linejoin="bevel" transform="matrix(0.358095,0,0,0.358095,46.3505,425.75)"
font-family="Cantarell" font-size="35" font-weight="400" font-style="normal" 
>
</g>

<g fill="none" stroke="#a2a39c" stroke-opacity="1" stroke-width="1" stroke-linecap="square" stroke-linejoin="bevel" transform="matrix(0.358095,0,0,0.358095,44.9181,338.784)"
font-family="Cantarell" font-size="35" font-weight="400" font-style="normal" 
>
</g>

<g fill="none" stroke="#a2a39c" stroke-opacity="1" stroke-width="1" stroke-linecap="square" stroke-linejoin="bevel" transform="matrix(0.358095,0,0,0.358095,44.9181,338.784)"
font-family="Cantarell" font-size="35" font-weight="400" font-style="normal" 
>
<text fill="#a2a39c" fill-opacity="1" stroke="none" xml:space="preserve" x="0" y="0" font-family="Cantarell" font-size="35" font-weight="400" font-style="normal" 
 >2,000</text>
</g>

<g fill="none" stroke="#a2a39c" stroke-opacity="1" stroke-width="1" stroke-linecap="square" stroke-linejoin="bevel" transform="matrix(0.358095,0,0,0.358095,44.9181,338.784)"
font-family="Cantarell" font-size="35" font-weight="400" font-style="normal" 
>
</g>

<g fill="none" stroke="#a2a39c" stroke-opacity="1" stroke-width="1" stroke-linecap="square" stroke-linejoin="bevel" transform="matrix(0.358095,0,0,0.358095,45.6343,251.818)"
font-family="Cantarell" font-size="35" font-weight="400" font-style="normal" 
>
</g>

<g fill="none" stroke="#a2a39c" stroke-opacity="1" stroke-width="1" stroke-linecap="square" stroke-linejoin="bevel" transform="matrix(0.358095,0,0,0.358095,45.6343,251.818)"
font-family="Cantarell" font-size="35" font-weight="400" font-style="normal" 
>
<text fill="#a2a39c" fill-opacity="1" stroke="none" xml:space="preserve" x="0" y="0" font-family="Cantarell" font-size="35" font-weight="400" font-style="normal" 
 >2,500</text>
</g>

<g fill="none" stroke="#a2a39c" stroke-opacity="1" stroke-width="1" stroke-linecap="square" stroke-linejoin="bevel" transform="matrix(0.358095,0,0,0.358095,45.6343,251.818)"
font-family="Cantarell" font-size="35" font-weight="400" font-style="normal" 
>
</g>

<g fill="none" stroke="#a2a39c" stroke-opacity="1" stroke-width="1" stroke-linecap="square" stroke-linejoin="bevel" transform="matrix(0.358095,0,0,0.358095,44.2019,164.852)"
font-family="Cantarell" font-size="35" font-weight="400" font-style="normal" 
>
</g>

<g fill="none" stroke="#a2a39c" stroke-opacity="1" stroke-width="1" stroke-linecap="square" stroke-linejoin="bevel" transform="matrix(0.358095,0,0,0.358095,44.2019,164.852)"
font-family="Cantarell" font-size="35" font-weight="400" font-style="normal" 
>
<text fill="#a2a39c" fill-opacity="1" stroke="none" xml:space="preserve" x="0" y="0" font-family="Cantarell" font-size="35" font-weight="400" font-style="normal" 
 >3,000</text>
</g>

<g fill="none" stroke="#a2a39c" stroke-opacity="1" stroke-width="1" stroke-linecap="square" stroke-linejoin="bevel" transform="matrix(0.358095,0,0,0.358095,44.2019,164.852)"
font-family="Cantarell" font-size="35" font-weight="400" font-style="normal" 
>
</g>

<g fill="none" stroke="#a2a39c" stroke-opacity="1" stroke-width="1" stroke-linecap="square" stroke-linejoin="bevel" transform="matrix(0.358095,0,0,0.358095,44.9181,77.8857)"
font-family="Cantarell" font-size="35" font-weight="400" font-style="normal" 
>
</g>

<g fill="none" stroke="#a2a39c" stroke-opacity="1" stroke-width="1" stroke-linecap="square" stroke-linejoin="bevel" transform="matrix(0.358095,0,0,0.358095,44.9181,77.8857)"
font-family="Cantarell" font-size="35" font-weight="400" font-style="normal" 
>
<text fill="#a2a39c" fill-opacity="1" stroke="none" xml:space="preserve" x="0" y="0" font-family="Cantarell" font-size="35" font-weight="400" font-style="normal" 
 >3,500</text>
</g>

<g fill="none" stroke="#a2a39c" stroke-opacity="1" stroke-width="1" stroke-linecap="square" stroke-linejoin="bevel" transform="matrix(0.358095,0,0,0.358095,44.9181,77.8857)"
font-family="Cantarell" font-size="35" font-weight="400" font-style="normal" 
>
</g>

<g fill="none" stroke="#000000" stroke-opacity="1" stroke-width="1" stroke-linecap="square" stroke-linejoin="bevel" transform="matrix(0.358095,0,0,0.358095,264.99,376)"
font-family="Cantarell" font-size="11" font-weight="400" font-style="normal" 
>
</g>

<g fill="none" stroke="#000000" stroke-opacity="1" stroke-width="1" stroke-linecap="square" stroke-linejoin="bevel" transform="matrix(0.358095,0,0,0.358095,31.4636,373.473)"
font-family="Cantarell" font-size="11" font-weight="400" font-style="normal" 
>
</g>

<g fill="none" stroke="#000000" stroke-opacity="1" stroke-width="1" stroke-linecap="square" stroke-linejoin="bevel" transform="matrix(0.358095,0,0,0.358095,31.4636,373.473)"
font-family="Cantarell" font-size="11" font-weight="400" font-style="normal" 
>
</g>

<g fill="none" stroke="#000000" stroke-opacity="1" stroke-width="1" stroke-linecap="square" stroke-linejoin="bevel" transform="matrix(0.358095,0,0,0.358095,31.4636,373.473)"
font-family="Cantarell" font-size="11" font-weight="400" font-style="normal" 
>
</g>

<g fill="none" stroke="#000000" stroke-opacity="1" stroke-width="1" stroke-linecap="square" stroke-linejoin="bevel" transform="matrix(0.358095,0,0,0.358095,31.4636,373.473)"
font-family="Cantarell" font-size="11" font-weight="400" font-style="normal" 
>
</g>

<g fill="none" stroke="#000000" stroke-opacity="1" stroke-width="1" stroke-linecap="square" stroke-linejoin="bevel" transform="matrix(0,-1.26328,1.26328,0,14.4094,426.245)"
font-family="Cantarell" font-size="11" font-weight="400" font-style="normal" 
>
</g>

<g fill="none" stroke="#000000" stroke-opacity="1" stroke-width="1" stroke-linecap="square" stroke-linejoin="bevel" transform="matrix(0,-1.26328,1.26328,0,14.4094,426.245)"
font-family="Cantarell" font-size="11" font-weight="400" font-style="normal" 
>
</g>

<g fill="none" stroke="#000000" stroke-opacity="1" stroke-width="1" stroke-linecap="square" stroke-linejoin="bevel" transform="matrix(0,-1.26328,1.26328,0,14.4094,426.245)"
font-family="Cantarell" font-size="11" font-weight="400" font-style="normal" 
>
</g>

<g fill="#272822" fill-opacity="1" stroke="none" transform="matrix(0,-1.26328,1.26328,0,14.4094,426.245)"
font-family="Cantarell" font-size="11" font-weight="400" font-style="normal" 
>
<rect x="4" y="4" width="76" height="19"/>
</g>

<g fill="none" stroke="#a2a39c" stroke-opacity="1" stroke-width="1" stroke-linecap="square" stroke-linejoin="bevel" transform="matrix(0,-1.26328,1.26328,0,14.4094,426.245)"
font-family="Cantarell" font-size="11" font-weight="400" font-style="normal" 
>
<text fill="#a2a39c" fill-opacity="1" stroke="none" xml:space="preserve" x="4" y="19" font-family="Arial" font-size="12" font-weight="400" font-style="normal" 
 >Frequency</text>
</g>

<g fill="none" stroke="#000000" stroke-opacity="1" stroke-width="1" stroke-linecap="square" stroke-linejoin="bevel" transform="matrix(0,-1.26328,1.26328,0,14.4094,426.245)"
font-family="Cantarell" font-size="11" font-weight="400" font-style="normal" 
>
</g>

<g fill="none" stroke="#000000" stroke-opacity="1" stroke-width="1" stroke-linecap="square" stroke-linejoin="bevel" transform="matrix(1,0,0,1,0,0)"
font-family="Cantarell" font-size="11" font-weight="400" font-style="normal" 
>
</g>

<g fill="none" stroke="#000000" stroke-opacity="1" stroke-width="1" stroke-linecap="square" stroke-linejoin="bevel" transform="matrix(0.358095,0,0,0.358095,264.99,376)"
font-family="Cantarell" font-size="11" font-weight="400" font-style="normal" 
>
</g>

<g fill="none" stroke="#000000" stroke-opacity="1" stroke-width="1" stroke-linecap="square" stroke-linejoin="bevel" transform="matrix(0,-1.26328,1.26328,0,14.4094,426.245)"
font-family="Cantarell" font-size="11" font-weight="400" font-style="normal" 
>
</g>

<g fill="none" stroke="#000000" stroke-opacity="1" stroke-width="1" stroke-linecap="square" stroke-linejoin="bevel" transform="matrix(0,-1.26328,1.26328,0,14.4094,426.245)"
font-family="Cantarell" font-size="11" font-weight="400" font-style="normal" 
>
</g>

<g fill="none" stroke="#000000" stroke-opacity="1" stroke-width="1" stroke-linecap="square" stroke-linejoin="bevel" transform="matrix(0.358095,0,0,0.358095,31.4636,373.473)"
font-family="Cantarell" font-size="11" font-weight="400" font-style="normal" 
>
</g>

<g fill="none" stroke="#000000" stroke-opacity="1" stroke-width="1" stroke-linecap="square" stroke-linejoin="bevel" transform="matrix(0.358095,0,0,0.358095,264.99,376)"
font-family="Cantarell" font-size="11" font-weight="400" font-style="normal" 
>
</g>

<g fill="#000000" fill-opacity="1" stroke="#a2a39c" stroke-opacity="1" stroke-width="3.52778" stroke-linecap="square" stroke-linejoin="bevel" transform="matrix(0.358095,0,0,0.358095,264.99,376)"
font-family="Cantarell" font-size="11" font-weight="400" font-style="normal" 
>
<path vector-effect="none" fill-rule="evenodd" d="M540,850 L540,-850"/>
</g>

<g fill="none" stroke="#a2a39c" stroke-opacity="1" stroke-width="3.52778" stroke-linecap="square" stroke-linejoin="bevel" transform="matrix(0.358095,0,0,0.358095,264.99,376)"
font-family="Cantarell" font-size="11" font-weight="400" font-style="normal" 
>
<path vector-effect="none" fill-rule="evenodd" d="M540,850 L518.833,850 M540,607.143 L518.833,607.143 M540,364.286 L518.833,364.286 M540,121.429 L518.833,121.429 M540,-121.429 L518.833,-121.429 M540,-364.286 L518.833,-364.286 M540,-607.143 L518.833,-607.143 M540,-850 L518.833,-850"/>
<path vector-effect="none" fill-rule="evenodd" d="M540,728.571 L529.417,728.571 M540,485.714 L529.417,485.714 M540,242.857 L529.417,242.857 M540,0 L529.417,0 M540,-242.857 L529.417,-242.857 M540,-485.714 L529.417,-485.714 M540,-728.571 L529.417,-728.571"/>
</g>

<g fill="none" stroke="#000000" stroke-opacity="1" stroke-width="1" stroke-linecap="square" stroke-linejoin="bevel" transform="matrix(0.358095,0,0,0.358095,264.99,376)"
font-family="Cantarell" font-size="11" font-weight="400" font-style="normal" 
>
</g>

<g fill="none" stroke="#000000" stroke-opacity="1" stroke-width="1" stroke-linecap="square" stroke-linejoin="bevel" transform="matrix(0.358095,0,0,0.358095,264.99,376)"
font-family="Cantarell" font-size="11" font-weight="400" font-style="normal" 
>
</g>

<g fill="none" stroke="#000000" stroke-opacity="1" stroke-width="1" stroke-linecap="square" stroke-linejoin="bevel" transform="matrix(0.358095,0,0,0.358095,264.99,376)"
font-family="Cantarell" font-size="11" font-weight="400" font-style="normal" 
>
</g>

<g fill="none" stroke="#000000" stroke-opacity="1" stroke-width="1" stroke-linecap="square" stroke-linejoin="bevel" transform="matrix(0.358095,0,0,0.358095,264.99,376)"
font-family="Cantarell" font-size="11" font-weight="400" font-style="normal" 
>
</g>

<g fill="none" stroke="#000000" stroke-opacity="1" stroke-width="1" stroke-linecap="square" stroke-linejoin="bevel" transform="matrix(0,-1.26328,1.26328,0,247.936,381.053)"
font-family="Cantarell" font-size="11" font-weight="400" font-style="normal" 
>
</g>

<g fill="none" stroke="#000000" stroke-opacity="1" stroke-width="1" stroke-linecap="square" stroke-linejoin="bevel" transform="matrix(0,-1.26328,1.26328,0,247.936,381.053)"
font-family="Cantarell" font-size="11" font-weight="400" font-style="normal" 
>
</g>

<g fill="none" stroke="#000000" stroke-opacity="1" stroke-width="1" stroke-linecap="square" stroke-linejoin="bevel" transform="matrix(0,-1.26328,1.26328,0,247.936,381.053)"
font-family="Cantarell" font-size="11" font-weight="400" font-style="normal" 
>
</g>

<g fill="none" stroke="#000000" stroke-opacity="1" stroke-width="1" stroke-linecap="square" stroke-linejoin="bevel" transform="matrix(0,-1.26328,1.26328,0,247.936,381.053)"
font-family="Cantarell" font-size="11" font-weight="400" font-style="normal" 
>
</g>

<g fill="none" stroke="#000000" stroke-opacity="1" stroke-width="1" stroke-linecap="square" stroke-linejoin="bevel" transform="matrix(1,0,0,1,0,0)"
font-family="Cantarell" font-size="11" font-weight="400" font-style="normal" 
>
</g>

<g fill="none" stroke="#000000" stroke-opacity="1" stroke-width="1" stroke-linecap="square" stroke-linejoin="bevel" transform="matrix(0.358095,0,0,0.358095,264.99,376)"
font-family="Cantarell" font-size="11" font-weight="400" font-style="normal" 
>
</g>

<g fill="none" stroke="#000000" stroke-opacity="1" stroke-width="1" stroke-linecap="square" stroke-linejoin="bevel" transform="matrix(0,-1.26328,1.26328,0,247.936,381.053)"
font-family="Cantarell" font-size="11" font-weight="400" font-style="normal" 
>
</g>

<g fill="none" stroke="#000000" stroke-opacity="1" stroke-width="1" stroke-linecap="square" stroke-linejoin="bevel" transform="matrix(0,-1.26328,1.26328,0,247.936,381.053)"
font-family="Cantarell" font-size="11" font-weight="400" font-style="normal" 
>
</g>

<g fill="none" stroke="#000000" stroke-opacity="1" stroke-width="1" stroke-linecap="square" stroke-linejoin="bevel" transform="matrix(0.358095,0,0,0.358095,264.99,376)"
font-family="Cantarell" font-size="11" font-weight="400" font-style="normal" 
>
</g>

<g fill="none" stroke="#000000" stroke-opacity="1" stroke-width="1" stroke-linecap="square" stroke-linejoin="bevel" transform="matrix(0.358095,0,0,0.358095,264.99,376)"
font-family="Cantarell" font-size="11" font-weight="400" font-style="normal" 
>
</g>

<g fill="none" stroke="#000000" stroke-opacity="1" stroke-width="1" stroke-linecap="square" stroke-linejoin="bevel" transform="matrix(1,0,0,1,0,0)"
font-family="Cantarell" font-size="11" font-weight="400" font-style="normal" 
>
</g>

<g fill="none" stroke="#000000" stroke-opacity="1" stroke-width="1" stroke-linecap="square" stroke-linejoin="bevel" transform="matrix(0.358095,0,0,0.358095,264.99,376)"
font-family="Cantarell" font-size="11" font-weight="400" font-style="normal" 
>
</g>

<g fill="none" stroke="#000000" stroke-opacity="1" stroke-width="1" stroke-linecap="square" stroke-linejoin="bevel" transform="matrix(1,0,0,1,0,0)"
font-family="Cantarell" font-size="11" font-weight="400" font-style="normal" 
>
</g>
</g>
</svg>
